G04 EAGLE Gerber RS-274X export*
G75*
%MOMM*%
%FSLAX34Y34*%
%LPD*%
%INSilk top*%
%IPPOS*%
%AMOC8*
5,1,8,0,0,1.08239X$1,22.5*%
G01*
%ADD10C,0.076200*%
%ADD11C,0.101600*%
%ADD12R,0.500100X0.950000*%
%ADD13C,0.127000*%
%ADD14R,0.800000X1.200000*%
%ADD15R,0.300000X0.200000*%
%ADD16C,0.152400*%
%ADD17C,0.203200*%
%ADD18R,0.584200X0.457200*%
%ADD19R,0.406400X0.863600*%
%ADD20R,0.863600X0.406400*%
%ADD21R,0.508000X0.508000*%
%ADD22C,0.000000*%
%ADD23R,0.150000X0.300000*%
%ADD24R,0.300000X0.300000*%
%ADD25R,1.350000X0.600000*%


D10*
X114371Y9236D02*
X115598Y9236D01*
X115598Y5144D01*
X113143Y5144D01*
X113143Y5143D02*
X113065Y5145D01*
X112987Y5150D01*
X112910Y5160D01*
X112833Y5173D01*
X112757Y5189D01*
X112682Y5209D01*
X112608Y5233D01*
X112535Y5260D01*
X112463Y5291D01*
X112393Y5325D01*
X112325Y5362D01*
X112258Y5403D01*
X112193Y5447D01*
X112131Y5493D01*
X112071Y5543D01*
X112013Y5595D01*
X111958Y5650D01*
X111906Y5708D01*
X111856Y5768D01*
X111810Y5830D01*
X111766Y5895D01*
X111725Y5962D01*
X111688Y6030D01*
X111654Y6100D01*
X111623Y6172D01*
X111596Y6245D01*
X111572Y6319D01*
X111552Y6394D01*
X111536Y6470D01*
X111523Y6547D01*
X111513Y6624D01*
X111508Y6702D01*
X111506Y6780D01*
X111506Y10873D01*
X111508Y10953D01*
X111514Y11033D01*
X111524Y11113D01*
X111537Y11192D01*
X111555Y11271D01*
X111576Y11348D01*
X111602Y11424D01*
X111631Y11499D01*
X111663Y11573D01*
X111699Y11645D01*
X111739Y11715D01*
X111782Y11782D01*
X111828Y11848D01*
X111878Y11911D01*
X111930Y11972D01*
X111985Y12031D01*
X112044Y12086D01*
X112104Y12138D01*
X112168Y12188D01*
X112234Y12234D01*
X112301Y12277D01*
X112371Y12317D01*
X112443Y12353D01*
X112517Y12385D01*
X112591Y12414D01*
X112668Y12440D01*
X112745Y12461D01*
X112824Y12479D01*
X112903Y12492D01*
X112983Y12502D01*
X113063Y12508D01*
X113143Y12510D01*
X115598Y12510D01*
X119309Y12510D02*
X119309Y5144D01*
X123401Y5144D02*
X119309Y12510D01*
X123401Y12510D02*
X123401Y5144D01*
X127112Y5144D02*
X127112Y12510D01*
X129158Y12510D01*
X129158Y12509D02*
X129247Y12507D01*
X129336Y12501D01*
X129425Y12491D01*
X129513Y12478D01*
X129601Y12461D01*
X129688Y12439D01*
X129773Y12414D01*
X129858Y12386D01*
X129941Y12353D01*
X130023Y12317D01*
X130103Y12278D01*
X130181Y12235D01*
X130257Y12189D01*
X130332Y12139D01*
X130404Y12086D01*
X130473Y12030D01*
X130540Y11971D01*
X130605Y11910D01*
X130666Y11845D01*
X130725Y11778D01*
X130781Y11709D01*
X130834Y11637D01*
X130884Y11562D01*
X130930Y11486D01*
X130973Y11408D01*
X131012Y11328D01*
X131048Y11246D01*
X131081Y11163D01*
X131109Y11078D01*
X131134Y10993D01*
X131156Y10906D01*
X131173Y10818D01*
X131186Y10730D01*
X131196Y10641D01*
X131202Y10552D01*
X131204Y10463D01*
X131204Y7190D01*
X131202Y7101D01*
X131196Y7012D01*
X131186Y6923D01*
X131173Y6835D01*
X131156Y6747D01*
X131134Y6660D01*
X131109Y6575D01*
X131081Y6490D01*
X131048Y6407D01*
X131012Y6325D01*
X130973Y6245D01*
X130930Y6167D01*
X130884Y6091D01*
X130834Y6016D01*
X130781Y5944D01*
X130725Y5875D01*
X130666Y5808D01*
X130605Y5743D01*
X130540Y5682D01*
X130473Y5623D01*
X130404Y5567D01*
X130332Y5514D01*
X130257Y5464D01*
X130181Y5418D01*
X130103Y5375D01*
X130023Y5336D01*
X129941Y5300D01*
X129858Y5267D01*
X129773Y5239D01*
X129688Y5214D01*
X129601Y5192D01*
X129513Y5175D01*
X129425Y5162D01*
X129336Y5152D01*
X129247Y5146D01*
X129158Y5144D01*
X127112Y5144D01*
X91687Y5144D02*
X91687Y12510D01*
X90869Y5144D02*
X92505Y5144D01*
X92505Y12510D02*
X90869Y12510D01*
X95493Y10463D02*
X95493Y7190D01*
X95493Y10463D02*
X95495Y10552D01*
X95501Y10641D01*
X95511Y10730D01*
X95524Y10818D01*
X95541Y10906D01*
X95563Y10993D01*
X95588Y11078D01*
X95616Y11163D01*
X95649Y11246D01*
X95685Y11328D01*
X95724Y11408D01*
X95767Y11486D01*
X95813Y11562D01*
X95863Y11637D01*
X95916Y11709D01*
X95972Y11778D01*
X96031Y11845D01*
X96092Y11910D01*
X96157Y11971D01*
X96224Y12030D01*
X96293Y12086D01*
X96365Y12139D01*
X96440Y12189D01*
X96516Y12235D01*
X96594Y12278D01*
X96674Y12317D01*
X96756Y12353D01*
X96839Y12386D01*
X96924Y12414D01*
X97009Y12439D01*
X97096Y12461D01*
X97184Y12478D01*
X97272Y12491D01*
X97361Y12501D01*
X97450Y12507D01*
X97539Y12509D01*
X97628Y12507D01*
X97717Y12501D01*
X97806Y12491D01*
X97894Y12478D01*
X97982Y12461D01*
X98069Y12439D01*
X98154Y12414D01*
X98239Y12386D01*
X98322Y12353D01*
X98404Y12317D01*
X98484Y12278D01*
X98562Y12235D01*
X98638Y12189D01*
X98713Y12139D01*
X98785Y12086D01*
X98854Y12030D01*
X98921Y11971D01*
X98986Y11910D01*
X99047Y11845D01*
X99106Y11778D01*
X99162Y11709D01*
X99215Y11637D01*
X99265Y11562D01*
X99311Y11486D01*
X99354Y11408D01*
X99393Y11328D01*
X99429Y11246D01*
X99462Y11163D01*
X99490Y11078D01*
X99515Y10993D01*
X99537Y10906D01*
X99554Y10818D01*
X99567Y10730D01*
X99577Y10641D01*
X99583Y10552D01*
X99585Y10463D01*
X99585Y7190D01*
X99583Y7101D01*
X99577Y7012D01*
X99567Y6923D01*
X99554Y6835D01*
X99537Y6747D01*
X99515Y6660D01*
X99490Y6575D01*
X99462Y6490D01*
X99429Y6407D01*
X99393Y6325D01*
X99354Y6245D01*
X99311Y6167D01*
X99265Y6091D01*
X99215Y6016D01*
X99162Y5944D01*
X99106Y5875D01*
X99047Y5808D01*
X98986Y5743D01*
X98921Y5682D01*
X98854Y5623D01*
X98785Y5567D01*
X98713Y5514D01*
X98638Y5464D01*
X98562Y5418D01*
X98484Y5375D01*
X98404Y5336D01*
X98322Y5300D01*
X98239Y5267D01*
X98154Y5239D01*
X98069Y5214D01*
X97982Y5192D01*
X97894Y5175D01*
X97806Y5162D01*
X97717Y5152D01*
X97628Y5146D01*
X97539Y5144D01*
X97450Y5146D01*
X97361Y5152D01*
X97272Y5162D01*
X97184Y5175D01*
X97096Y5192D01*
X97009Y5214D01*
X96924Y5239D01*
X96839Y5267D01*
X96756Y5300D01*
X96674Y5336D01*
X96594Y5375D01*
X96516Y5418D01*
X96440Y5464D01*
X96365Y5514D01*
X96293Y5567D01*
X96224Y5623D01*
X96157Y5682D01*
X96092Y5743D01*
X96031Y5808D01*
X95972Y5875D01*
X95916Y5944D01*
X95863Y6016D01*
X95813Y6091D01*
X95767Y6167D01*
X95724Y6245D01*
X95685Y6325D01*
X95649Y6407D01*
X95616Y6490D01*
X95588Y6575D01*
X95563Y6660D01*
X95541Y6747D01*
X95524Y6835D01*
X95511Y6923D01*
X95501Y7012D01*
X95495Y7101D01*
X95493Y7190D01*
X62294Y5144D02*
X62294Y12510D01*
X66386Y5144D01*
X66386Y12510D01*
X71466Y5144D02*
X73103Y5144D01*
X71466Y5143D02*
X71388Y5145D01*
X71310Y5150D01*
X71233Y5160D01*
X71156Y5173D01*
X71080Y5189D01*
X71005Y5209D01*
X70931Y5233D01*
X70858Y5260D01*
X70786Y5291D01*
X70716Y5325D01*
X70648Y5362D01*
X70581Y5403D01*
X70516Y5447D01*
X70454Y5493D01*
X70394Y5543D01*
X70336Y5595D01*
X70281Y5650D01*
X70229Y5708D01*
X70179Y5768D01*
X70133Y5830D01*
X70089Y5895D01*
X70048Y5962D01*
X70011Y6030D01*
X69977Y6100D01*
X69946Y6172D01*
X69919Y6245D01*
X69895Y6319D01*
X69875Y6394D01*
X69859Y6470D01*
X69846Y6547D01*
X69836Y6624D01*
X69831Y6702D01*
X69829Y6780D01*
X69829Y10873D01*
X69831Y10953D01*
X69837Y11033D01*
X69847Y11113D01*
X69860Y11192D01*
X69878Y11271D01*
X69899Y11348D01*
X69925Y11424D01*
X69954Y11499D01*
X69986Y11573D01*
X70022Y11645D01*
X70062Y11715D01*
X70105Y11782D01*
X70151Y11848D01*
X70201Y11911D01*
X70253Y11972D01*
X70308Y12031D01*
X70367Y12086D01*
X70427Y12138D01*
X70491Y12188D01*
X70557Y12234D01*
X70624Y12277D01*
X70694Y12317D01*
X70766Y12353D01*
X70840Y12385D01*
X70914Y12414D01*
X70991Y12440D01*
X71068Y12461D01*
X71147Y12479D01*
X71226Y12492D01*
X71306Y12502D01*
X71386Y12508D01*
X71466Y12510D01*
X73103Y12510D01*
X40936Y367094D02*
X38481Y374460D01*
X43392Y374460D02*
X40936Y367094D01*
X46788Y367094D02*
X46788Y374460D01*
X45970Y367094D02*
X47607Y367094D01*
X47607Y374460D02*
X45970Y374460D01*
X50838Y374460D02*
X50838Y367094D01*
X54931Y367094D02*
X50838Y374460D01*
X54931Y374460D02*
X54931Y367094D01*
X79446Y371186D02*
X80673Y371186D01*
X80673Y367094D01*
X78218Y367094D01*
X78218Y367093D02*
X78140Y367095D01*
X78062Y367100D01*
X77985Y367110D01*
X77908Y367123D01*
X77832Y367139D01*
X77757Y367159D01*
X77683Y367183D01*
X77610Y367210D01*
X77538Y367241D01*
X77468Y367275D01*
X77400Y367312D01*
X77333Y367353D01*
X77268Y367397D01*
X77206Y367443D01*
X77146Y367493D01*
X77088Y367545D01*
X77033Y367600D01*
X76981Y367658D01*
X76931Y367718D01*
X76885Y367780D01*
X76841Y367845D01*
X76800Y367912D01*
X76763Y367980D01*
X76729Y368050D01*
X76698Y368122D01*
X76671Y368195D01*
X76647Y368269D01*
X76627Y368344D01*
X76611Y368420D01*
X76598Y368497D01*
X76588Y368574D01*
X76583Y368652D01*
X76581Y368730D01*
X76581Y372823D01*
X76583Y372903D01*
X76589Y372983D01*
X76599Y373063D01*
X76612Y373142D01*
X76630Y373221D01*
X76651Y373298D01*
X76677Y373374D01*
X76706Y373449D01*
X76738Y373523D01*
X76774Y373595D01*
X76814Y373665D01*
X76857Y373732D01*
X76903Y373798D01*
X76953Y373861D01*
X77005Y373922D01*
X77060Y373981D01*
X77119Y374036D01*
X77179Y374088D01*
X77243Y374138D01*
X77309Y374184D01*
X77376Y374227D01*
X77446Y374267D01*
X77518Y374303D01*
X77592Y374335D01*
X77666Y374364D01*
X77743Y374390D01*
X77820Y374411D01*
X77899Y374429D01*
X77978Y374442D01*
X78058Y374452D01*
X78138Y374458D01*
X78218Y374460D01*
X80673Y374460D01*
X84384Y374460D02*
X84384Y367094D01*
X88476Y367094D02*
X84384Y374460D01*
X88476Y374460D02*
X88476Y367094D01*
X92187Y367094D02*
X92187Y374460D01*
X94233Y374460D01*
X94233Y374459D02*
X94322Y374457D01*
X94411Y374451D01*
X94500Y374441D01*
X94588Y374428D01*
X94676Y374411D01*
X94763Y374389D01*
X94848Y374364D01*
X94933Y374336D01*
X95016Y374303D01*
X95098Y374267D01*
X95178Y374228D01*
X95256Y374185D01*
X95332Y374139D01*
X95407Y374089D01*
X95479Y374036D01*
X95548Y373980D01*
X95615Y373921D01*
X95680Y373860D01*
X95741Y373795D01*
X95800Y373728D01*
X95856Y373659D01*
X95909Y373587D01*
X95959Y373512D01*
X96005Y373436D01*
X96048Y373358D01*
X96087Y373278D01*
X96123Y373196D01*
X96156Y373113D01*
X96184Y373028D01*
X96209Y372943D01*
X96231Y372856D01*
X96248Y372768D01*
X96261Y372680D01*
X96271Y372591D01*
X96277Y372502D01*
X96279Y372413D01*
X96279Y369140D01*
X96277Y369051D01*
X96271Y368962D01*
X96261Y368873D01*
X96248Y368785D01*
X96231Y368697D01*
X96209Y368610D01*
X96184Y368525D01*
X96156Y368440D01*
X96123Y368357D01*
X96087Y368275D01*
X96048Y368195D01*
X96005Y368117D01*
X95959Y368041D01*
X95909Y367966D01*
X95856Y367894D01*
X95800Y367825D01*
X95741Y367758D01*
X95680Y367693D01*
X95615Y367632D01*
X95548Y367573D01*
X95479Y367517D01*
X95407Y367464D01*
X95332Y367414D01*
X95256Y367368D01*
X95178Y367325D01*
X95098Y367286D01*
X95016Y367250D01*
X94933Y367217D01*
X94848Y367189D01*
X94763Y367164D01*
X94676Y367142D01*
X94588Y367125D01*
X94500Y367112D01*
X94411Y367102D01*
X94322Y367096D01*
X94233Y367094D01*
X92187Y367094D01*
X114681Y374460D02*
X117136Y367094D01*
X119592Y374460D01*
X122405Y372413D02*
X122405Y369140D01*
X122406Y372413D02*
X122408Y372502D01*
X122414Y372591D01*
X122424Y372680D01*
X122437Y372768D01*
X122454Y372856D01*
X122476Y372943D01*
X122501Y373028D01*
X122529Y373113D01*
X122562Y373196D01*
X122598Y373278D01*
X122637Y373358D01*
X122680Y373436D01*
X122726Y373512D01*
X122776Y373587D01*
X122829Y373659D01*
X122885Y373728D01*
X122944Y373795D01*
X123005Y373860D01*
X123070Y373921D01*
X123137Y373980D01*
X123206Y374036D01*
X123278Y374089D01*
X123353Y374139D01*
X123429Y374185D01*
X123507Y374228D01*
X123587Y374267D01*
X123669Y374303D01*
X123752Y374336D01*
X123837Y374364D01*
X123922Y374389D01*
X124009Y374411D01*
X124097Y374428D01*
X124185Y374441D01*
X124274Y374451D01*
X124363Y374457D01*
X124452Y374459D01*
X124541Y374457D01*
X124630Y374451D01*
X124719Y374441D01*
X124807Y374428D01*
X124895Y374411D01*
X124982Y374389D01*
X125067Y374364D01*
X125152Y374336D01*
X125235Y374303D01*
X125317Y374267D01*
X125397Y374228D01*
X125475Y374185D01*
X125551Y374139D01*
X125626Y374089D01*
X125698Y374036D01*
X125767Y373980D01*
X125834Y373921D01*
X125899Y373860D01*
X125960Y373795D01*
X126019Y373728D01*
X126075Y373659D01*
X126128Y373587D01*
X126178Y373512D01*
X126224Y373436D01*
X126267Y373358D01*
X126306Y373278D01*
X126342Y373196D01*
X126375Y373113D01*
X126403Y373028D01*
X126428Y372943D01*
X126450Y372856D01*
X126467Y372768D01*
X126480Y372680D01*
X126490Y372591D01*
X126496Y372502D01*
X126498Y372413D01*
X126498Y369140D01*
X126496Y369051D01*
X126490Y368962D01*
X126480Y368873D01*
X126467Y368785D01*
X126450Y368697D01*
X126428Y368610D01*
X126403Y368525D01*
X126375Y368440D01*
X126342Y368357D01*
X126306Y368275D01*
X126267Y368195D01*
X126224Y368117D01*
X126178Y368041D01*
X126128Y367966D01*
X126075Y367894D01*
X126019Y367825D01*
X125960Y367758D01*
X125899Y367693D01*
X125834Y367632D01*
X125767Y367573D01*
X125698Y367517D01*
X125626Y367464D01*
X125551Y367414D01*
X125475Y367368D01*
X125397Y367325D01*
X125317Y367286D01*
X125235Y367250D01*
X125152Y367217D01*
X125067Y367189D01*
X124982Y367164D01*
X124895Y367142D01*
X124807Y367125D01*
X124719Y367112D01*
X124630Y367102D01*
X124541Y367096D01*
X124452Y367094D01*
X124363Y367096D01*
X124274Y367102D01*
X124185Y367112D01*
X124097Y367125D01*
X124009Y367142D01*
X123922Y367164D01*
X123837Y367189D01*
X123752Y367217D01*
X123669Y367250D01*
X123587Y367286D01*
X123507Y367325D01*
X123429Y367368D01*
X123353Y367414D01*
X123278Y367464D01*
X123206Y367517D01*
X123137Y367573D01*
X123070Y367632D01*
X123005Y367693D01*
X122944Y367758D01*
X122885Y367825D01*
X122829Y367894D01*
X122776Y367966D01*
X122726Y368041D01*
X122680Y368117D01*
X122637Y368195D01*
X122598Y368275D01*
X122562Y368357D01*
X122529Y368440D01*
X122501Y368525D01*
X122476Y368610D01*
X122454Y368697D01*
X122437Y368785D01*
X122424Y368873D01*
X122414Y368962D01*
X122408Y369051D01*
X122406Y369140D01*
X129964Y369140D02*
X129964Y374460D01*
X129965Y369140D02*
X129967Y369051D01*
X129973Y368962D01*
X129983Y368873D01*
X129996Y368785D01*
X130013Y368697D01*
X130035Y368610D01*
X130060Y368525D01*
X130088Y368440D01*
X130121Y368357D01*
X130157Y368275D01*
X130196Y368195D01*
X130239Y368117D01*
X130285Y368041D01*
X130335Y367966D01*
X130388Y367894D01*
X130444Y367825D01*
X130503Y367758D01*
X130564Y367693D01*
X130629Y367632D01*
X130696Y367573D01*
X130765Y367517D01*
X130837Y367464D01*
X130912Y367414D01*
X130988Y367368D01*
X131066Y367325D01*
X131146Y367286D01*
X131228Y367250D01*
X131311Y367217D01*
X131396Y367189D01*
X131481Y367164D01*
X131568Y367142D01*
X131656Y367125D01*
X131744Y367112D01*
X131833Y367102D01*
X131922Y367096D01*
X132011Y367094D01*
X132100Y367096D01*
X132189Y367102D01*
X132278Y367112D01*
X132366Y367125D01*
X132454Y367142D01*
X132541Y367164D01*
X132626Y367189D01*
X132711Y367217D01*
X132794Y367250D01*
X132876Y367286D01*
X132956Y367325D01*
X133034Y367368D01*
X133110Y367414D01*
X133185Y367464D01*
X133257Y367517D01*
X133326Y367573D01*
X133393Y367632D01*
X133458Y367693D01*
X133519Y367758D01*
X133578Y367825D01*
X133634Y367894D01*
X133687Y367966D01*
X133737Y368041D01*
X133783Y368117D01*
X133826Y368195D01*
X133865Y368275D01*
X133901Y368357D01*
X133934Y368440D01*
X133962Y368525D01*
X133987Y368610D01*
X134009Y368697D01*
X134026Y368785D01*
X134039Y368873D01*
X134049Y368962D01*
X134055Y369051D01*
X134057Y369140D01*
X134057Y374460D01*
X139082Y374460D02*
X139082Y367094D01*
X137036Y374460D02*
X141128Y374460D01*
D11*
X105160Y163070D02*
X98040Y163070D01*
X98040Y154560D02*
X105160Y154560D01*
D12*
X95719Y158801D03*
X107403Y158801D03*
D13*
X50363Y83425D02*
X35363Y83425D01*
X35363Y113425D01*
X50363Y113425D01*
X50363Y83425D01*
X32863Y95925D02*
X27863Y95925D01*
X22863Y95925D01*
X27863Y100925D02*
X32863Y100925D01*
X27863Y100925D02*
X22863Y100925D01*
X27863Y95925D01*
X32863Y100925D01*
X27863Y95925D02*
X27863Y90925D01*
X27863Y100925D02*
X27863Y105925D01*
X38418Y100330D02*
X47308Y100330D01*
X42863Y96520D02*
X38418Y100330D01*
X42863Y96520D02*
X47308Y100330D01*
X47308Y96520D02*
X38418Y96520D01*
D14*
X42863Y98425D03*
D15*
X42863Y105425D03*
X42863Y91425D03*
D16*
X63246Y85789D02*
X76454Y85789D01*
X63246Y85789D02*
X63246Y114237D01*
X76454Y114237D01*
X76454Y85789D01*
D17*
X76850Y108013D02*
X76850Y114013D01*
X68850Y114013D01*
X76850Y92013D02*
X76850Y86013D01*
X68850Y86013D01*
D16*
X99759Y114237D02*
X112967Y114237D01*
X112967Y85789D01*
X99759Y85789D01*
X99759Y114237D01*
D18*
X96330Y100013D03*
X116396Y109411D03*
X116396Y90615D03*
D16*
X111379Y117539D02*
X98171Y117539D01*
X98171Y145987D01*
X111379Y145987D01*
X111379Y117539D01*
D17*
X111775Y139763D02*
X111775Y145763D01*
X103775Y145763D01*
X111775Y123763D02*
X111775Y117763D01*
X103775Y117763D01*
D16*
X55626Y126746D02*
X55626Y139954D01*
X84074Y139954D01*
X84074Y126746D01*
X55626Y126746D01*
D17*
X77850Y126350D02*
X83850Y126350D01*
X83850Y134350D01*
X61850Y126350D02*
X55850Y126350D01*
X55850Y134350D01*
D16*
X65530Y162310D02*
X74170Y162310D01*
X74170Y155190D02*
X65530Y155190D01*
D19*
X63500Y158750D03*
X76200Y158750D03*
D16*
X141673Y105920D02*
X141673Y97280D01*
X134553Y97280D02*
X134553Y105920D01*
D20*
X138113Y107950D03*
X138113Y95250D03*
D16*
X141673Y129030D02*
X141673Y137670D01*
X134553Y137670D02*
X134553Y129030D01*
D20*
X138113Y139700D03*
X138113Y127000D03*
D16*
X40890Y129030D02*
X40890Y137670D01*
X48010Y137670D02*
X48010Y129030D01*
D20*
X44450Y127000D03*
X44450Y139700D03*
D17*
X109538Y73025D02*
X103188Y66675D01*
X109538Y73025D02*
X122238Y73025D01*
X128588Y66675D01*
X128588Y53975D02*
X122238Y47625D01*
X109538Y47625D01*
X103188Y53975D01*
X71438Y73025D02*
X58738Y73025D01*
X71438Y73025D02*
X77788Y66675D01*
X77788Y53975D02*
X71438Y47625D01*
X77788Y66675D02*
X84138Y73025D01*
X96838Y73025D01*
X103188Y66675D01*
X103188Y53975D02*
X96838Y47625D01*
X84138Y47625D01*
X77788Y53975D01*
X52388Y53975D02*
X52388Y66675D01*
X58738Y73025D01*
X52388Y53975D02*
X58738Y47625D01*
X71438Y47625D01*
X128588Y53975D02*
X128588Y66675D01*
D21*
X115888Y60325D03*
X90488Y60325D03*
X65088Y60325D03*
D22*
X0Y0D02*
X177800Y0D01*
X177800Y431800D01*
X0Y431800D01*
X0Y0D01*
D17*
X42863Y334963D02*
X55563Y334963D01*
X42863Y334963D02*
X36513Y341313D01*
X36513Y354013D02*
X42863Y360363D01*
X80963Y334963D02*
X87313Y341313D01*
X80963Y334963D02*
X68263Y334963D01*
X61913Y341313D01*
X61913Y354013D02*
X68263Y360363D01*
X80963Y360363D01*
X87313Y354013D01*
X61913Y341313D02*
X55563Y334963D01*
X61913Y354013D02*
X55563Y360363D01*
X42863Y360363D01*
X119063Y334963D02*
X131763Y334963D01*
X119063Y334963D02*
X112713Y341313D01*
X112713Y354013D02*
X119063Y360363D01*
X112713Y341313D02*
X106363Y334963D01*
X93663Y334963D01*
X87313Y341313D01*
X87313Y354013D02*
X93663Y360363D01*
X106363Y360363D01*
X112713Y354013D01*
X138113Y354013D02*
X138113Y341313D01*
X131763Y334963D01*
X138113Y354013D02*
X131763Y360363D01*
X119063Y360363D01*
X36513Y354013D02*
X36513Y341313D01*
D21*
X49213Y347663D03*
X74613Y347663D03*
X100013Y347663D03*
X125413Y347663D03*
D17*
X135255Y304800D02*
X135255Y289560D01*
X135255Y304800D02*
X130175Y309880D01*
X135255Y254000D02*
X130175Y248920D01*
X135255Y254000D02*
X135255Y269240D01*
X79375Y309880D02*
X74295Y304800D01*
X74295Y289560D01*
X74295Y254000D02*
X79375Y248920D01*
X74295Y254000D02*
X74295Y269240D01*
X126365Y248920D02*
X130175Y248920D01*
X83185Y248920D02*
X79375Y248920D01*
X79375Y309880D02*
X83185Y309880D01*
X126365Y309880D02*
X130175Y309880D01*
X126365Y309880D02*
X83185Y309880D01*
X83185Y248920D02*
X126365Y248920D01*
X135255Y269240D02*
X135255Y289380D01*
X74295Y289680D02*
X74295Y269240D01*
X79375Y284480D02*
X79375Y292100D01*
X79375Y274320D02*
X79375Y266700D01*
X83185Y275590D02*
X79375Y284480D01*
X86995Y279400D02*
X87000Y279836D01*
X87016Y280272D01*
X87043Y280708D01*
X87081Y281143D01*
X87129Y281576D01*
X87187Y282009D01*
X87257Y282440D01*
X87337Y282869D01*
X87427Y283296D01*
X87528Y283720D01*
X87639Y284142D01*
X87761Y284561D01*
X87892Y284977D01*
X88034Y285390D01*
X88186Y285799D01*
X88348Y286204D01*
X88520Y286605D01*
X88702Y287002D01*
X88893Y287394D01*
X89094Y287781D01*
X89305Y288164D01*
X89525Y288541D01*
X89754Y288912D01*
X89991Y289278D01*
X90238Y289638D01*
X90494Y289992D01*
X90758Y290339D01*
X91031Y290680D01*
X91312Y291013D01*
X91601Y291340D01*
X91898Y291660D01*
X92203Y291972D01*
X92515Y292277D01*
X92835Y292574D01*
X93162Y292863D01*
X93495Y293144D01*
X93836Y293417D01*
X94183Y293681D01*
X94537Y293937D01*
X94897Y294184D01*
X95263Y294421D01*
X95634Y294650D01*
X96011Y294870D01*
X96394Y295081D01*
X96781Y295282D01*
X97173Y295473D01*
X97570Y295655D01*
X97971Y295827D01*
X98376Y295989D01*
X98785Y296141D01*
X99198Y296283D01*
X99614Y296414D01*
X100033Y296536D01*
X100455Y296647D01*
X100879Y296748D01*
X101306Y296838D01*
X101735Y296918D01*
X102166Y296988D01*
X102599Y297046D01*
X103032Y297094D01*
X103467Y297132D01*
X103903Y297159D01*
X104339Y297175D01*
X104775Y297180D01*
X105211Y297175D01*
X105647Y297159D01*
X106083Y297132D01*
X106518Y297094D01*
X106951Y297046D01*
X107384Y296988D01*
X107815Y296918D01*
X108244Y296838D01*
X108671Y296748D01*
X109095Y296647D01*
X109517Y296536D01*
X109936Y296414D01*
X110352Y296283D01*
X110765Y296141D01*
X111174Y295989D01*
X111579Y295827D01*
X111980Y295655D01*
X112377Y295473D01*
X112769Y295282D01*
X113156Y295081D01*
X113539Y294870D01*
X113916Y294650D01*
X114287Y294421D01*
X114653Y294184D01*
X115013Y293937D01*
X115367Y293681D01*
X115714Y293417D01*
X116055Y293144D01*
X116388Y292863D01*
X116715Y292574D01*
X117035Y292277D01*
X117347Y291972D01*
X117652Y291660D01*
X117949Y291340D01*
X118238Y291013D01*
X118519Y290680D01*
X118792Y290339D01*
X119056Y289992D01*
X119312Y289638D01*
X119559Y289278D01*
X119796Y288912D01*
X120025Y288541D01*
X120245Y288164D01*
X120456Y287781D01*
X120657Y287394D01*
X120848Y287002D01*
X121030Y286605D01*
X121202Y286204D01*
X121364Y285799D01*
X121516Y285390D01*
X121658Y284977D01*
X121789Y284561D01*
X121911Y284142D01*
X122022Y283720D01*
X122123Y283296D01*
X122213Y282869D01*
X122293Y282440D01*
X122363Y282009D01*
X122421Y281576D01*
X122469Y281143D01*
X122507Y280708D01*
X122534Y280272D01*
X122550Y279836D01*
X122555Y279400D01*
X122550Y278964D01*
X122534Y278528D01*
X122507Y278092D01*
X122469Y277657D01*
X122421Y277224D01*
X122363Y276791D01*
X122293Y276360D01*
X122213Y275931D01*
X122123Y275504D01*
X122022Y275080D01*
X121911Y274658D01*
X121789Y274239D01*
X121658Y273823D01*
X121516Y273410D01*
X121364Y273001D01*
X121202Y272596D01*
X121030Y272195D01*
X120848Y271798D01*
X120657Y271406D01*
X120456Y271019D01*
X120245Y270636D01*
X120025Y270259D01*
X119796Y269888D01*
X119559Y269522D01*
X119312Y269162D01*
X119056Y268808D01*
X118792Y268461D01*
X118519Y268120D01*
X118238Y267787D01*
X117949Y267460D01*
X117652Y267140D01*
X117347Y266828D01*
X117035Y266523D01*
X116715Y266226D01*
X116388Y265937D01*
X116055Y265656D01*
X115714Y265383D01*
X115367Y265119D01*
X115013Y264863D01*
X114653Y264616D01*
X114287Y264379D01*
X113916Y264150D01*
X113539Y263930D01*
X113156Y263719D01*
X112769Y263518D01*
X112377Y263327D01*
X111980Y263145D01*
X111579Y262973D01*
X111174Y262811D01*
X110765Y262659D01*
X110352Y262517D01*
X109936Y262386D01*
X109517Y262264D01*
X109095Y262153D01*
X108671Y262052D01*
X108244Y261962D01*
X107815Y261882D01*
X107384Y261812D01*
X106951Y261754D01*
X106518Y261706D01*
X106083Y261668D01*
X105647Y261641D01*
X105211Y261625D01*
X104775Y261620D01*
X104339Y261625D01*
X103903Y261641D01*
X103467Y261668D01*
X103032Y261706D01*
X102599Y261754D01*
X102166Y261812D01*
X101735Y261882D01*
X101306Y261962D01*
X100879Y262052D01*
X100455Y262153D01*
X100033Y262264D01*
X99614Y262386D01*
X99198Y262517D01*
X98785Y262659D01*
X98376Y262811D01*
X97971Y262973D01*
X97570Y263145D01*
X97173Y263327D01*
X96781Y263518D01*
X96394Y263719D01*
X96011Y263930D01*
X95634Y264150D01*
X95263Y264379D01*
X94897Y264616D01*
X94537Y264863D01*
X94183Y265119D01*
X93836Y265383D01*
X93495Y265656D01*
X93162Y265937D01*
X92835Y266226D01*
X92515Y266523D01*
X92203Y266828D01*
X91898Y267140D01*
X91601Y267460D01*
X91312Y267787D01*
X91031Y268120D01*
X90758Y268461D01*
X90494Y268808D01*
X90238Y269162D01*
X89991Y269522D01*
X89754Y269888D01*
X89525Y270259D01*
X89305Y270636D01*
X89094Y271019D01*
X88893Y271406D01*
X88702Y271798D01*
X88520Y272195D01*
X88348Y272596D01*
X88186Y273001D01*
X88034Y273410D01*
X87892Y273823D01*
X87761Y274239D01*
X87639Y274658D01*
X87528Y275080D01*
X87427Y275504D01*
X87337Y275931D01*
X87257Y276360D01*
X87187Y276791D01*
X87129Y277224D01*
X87081Y277657D01*
X87043Y278092D01*
X87016Y278528D01*
X87000Y278964D01*
X86995Y279400D01*
D16*
X38485Y267845D02*
X38485Y259205D01*
X31365Y259205D02*
X31365Y267845D01*
D20*
X34925Y269875D03*
X34925Y257175D03*
D16*
X38485Y290955D02*
X38485Y299595D01*
X31365Y299595D02*
X31365Y290955D01*
D20*
X34925Y301625D03*
X34925Y288925D03*
D11*
X37715Y324995D02*
X44835Y324995D01*
X44835Y316485D02*
X37715Y316485D01*
D12*
X35394Y320726D03*
X47078Y320726D03*
D17*
X135255Y234950D02*
X135255Y219710D01*
X135255Y234950D02*
X130175Y240030D01*
X135255Y184150D02*
X130175Y179070D01*
X135255Y184150D02*
X135255Y199390D01*
X79375Y240030D02*
X74295Y234950D01*
X74295Y219710D01*
X74295Y184150D02*
X79375Y179070D01*
X74295Y184150D02*
X74295Y199390D01*
X126365Y179070D02*
X130175Y179070D01*
X83185Y179070D02*
X79375Y179070D01*
X79375Y240030D02*
X83185Y240030D01*
X126365Y240030D02*
X130175Y240030D01*
X126365Y240030D02*
X83185Y240030D01*
X83185Y179070D02*
X126365Y179070D01*
X135255Y199390D02*
X135255Y219530D01*
X74295Y219830D02*
X74295Y199390D01*
X79375Y214630D02*
X79375Y222250D01*
X79375Y204470D02*
X79375Y196850D01*
X83185Y205740D02*
X79375Y214630D01*
X86995Y209550D02*
X87000Y209986D01*
X87016Y210422D01*
X87043Y210858D01*
X87081Y211293D01*
X87129Y211726D01*
X87187Y212159D01*
X87257Y212590D01*
X87337Y213019D01*
X87427Y213446D01*
X87528Y213870D01*
X87639Y214292D01*
X87761Y214711D01*
X87892Y215127D01*
X88034Y215540D01*
X88186Y215949D01*
X88348Y216354D01*
X88520Y216755D01*
X88702Y217152D01*
X88893Y217544D01*
X89094Y217931D01*
X89305Y218314D01*
X89525Y218691D01*
X89754Y219062D01*
X89991Y219428D01*
X90238Y219788D01*
X90494Y220142D01*
X90758Y220489D01*
X91031Y220830D01*
X91312Y221163D01*
X91601Y221490D01*
X91898Y221810D01*
X92203Y222122D01*
X92515Y222427D01*
X92835Y222724D01*
X93162Y223013D01*
X93495Y223294D01*
X93836Y223567D01*
X94183Y223831D01*
X94537Y224087D01*
X94897Y224334D01*
X95263Y224571D01*
X95634Y224800D01*
X96011Y225020D01*
X96394Y225231D01*
X96781Y225432D01*
X97173Y225623D01*
X97570Y225805D01*
X97971Y225977D01*
X98376Y226139D01*
X98785Y226291D01*
X99198Y226433D01*
X99614Y226564D01*
X100033Y226686D01*
X100455Y226797D01*
X100879Y226898D01*
X101306Y226988D01*
X101735Y227068D01*
X102166Y227138D01*
X102599Y227196D01*
X103032Y227244D01*
X103467Y227282D01*
X103903Y227309D01*
X104339Y227325D01*
X104775Y227330D01*
X105211Y227325D01*
X105647Y227309D01*
X106083Y227282D01*
X106518Y227244D01*
X106951Y227196D01*
X107384Y227138D01*
X107815Y227068D01*
X108244Y226988D01*
X108671Y226898D01*
X109095Y226797D01*
X109517Y226686D01*
X109936Y226564D01*
X110352Y226433D01*
X110765Y226291D01*
X111174Y226139D01*
X111579Y225977D01*
X111980Y225805D01*
X112377Y225623D01*
X112769Y225432D01*
X113156Y225231D01*
X113539Y225020D01*
X113916Y224800D01*
X114287Y224571D01*
X114653Y224334D01*
X115013Y224087D01*
X115367Y223831D01*
X115714Y223567D01*
X116055Y223294D01*
X116388Y223013D01*
X116715Y222724D01*
X117035Y222427D01*
X117347Y222122D01*
X117652Y221810D01*
X117949Y221490D01*
X118238Y221163D01*
X118519Y220830D01*
X118792Y220489D01*
X119056Y220142D01*
X119312Y219788D01*
X119559Y219428D01*
X119796Y219062D01*
X120025Y218691D01*
X120245Y218314D01*
X120456Y217931D01*
X120657Y217544D01*
X120848Y217152D01*
X121030Y216755D01*
X121202Y216354D01*
X121364Y215949D01*
X121516Y215540D01*
X121658Y215127D01*
X121789Y214711D01*
X121911Y214292D01*
X122022Y213870D01*
X122123Y213446D01*
X122213Y213019D01*
X122293Y212590D01*
X122363Y212159D01*
X122421Y211726D01*
X122469Y211293D01*
X122507Y210858D01*
X122534Y210422D01*
X122550Y209986D01*
X122555Y209550D01*
X122550Y209114D01*
X122534Y208678D01*
X122507Y208242D01*
X122469Y207807D01*
X122421Y207374D01*
X122363Y206941D01*
X122293Y206510D01*
X122213Y206081D01*
X122123Y205654D01*
X122022Y205230D01*
X121911Y204808D01*
X121789Y204389D01*
X121658Y203973D01*
X121516Y203560D01*
X121364Y203151D01*
X121202Y202746D01*
X121030Y202345D01*
X120848Y201948D01*
X120657Y201556D01*
X120456Y201169D01*
X120245Y200786D01*
X120025Y200409D01*
X119796Y200038D01*
X119559Y199672D01*
X119312Y199312D01*
X119056Y198958D01*
X118792Y198611D01*
X118519Y198270D01*
X118238Y197937D01*
X117949Y197610D01*
X117652Y197290D01*
X117347Y196978D01*
X117035Y196673D01*
X116715Y196376D01*
X116388Y196087D01*
X116055Y195806D01*
X115714Y195533D01*
X115367Y195269D01*
X115013Y195013D01*
X114653Y194766D01*
X114287Y194529D01*
X113916Y194300D01*
X113539Y194080D01*
X113156Y193869D01*
X112769Y193668D01*
X112377Y193477D01*
X111980Y193295D01*
X111579Y193123D01*
X111174Y192961D01*
X110765Y192809D01*
X110352Y192667D01*
X109936Y192536D01*
X109517Y192414D01*
X109095Y192303D01*
X108671Y192202D01*
X108244Y192112D01*
X107815Y192032D01*
X107384Y191962D01*
X106951Y191904D01*
X106518Y191856D01*
X106083Y191818D01*
X105647Y191791D01*
X105211Y191775D01*
X104775Y191770D01*
X104339Y191775D01*
X103903Y191791D01*
X103467Y191818D01*
X103032Y191856D01*
X102599Y191904D01*
X102166Y191962D01*
X101735Y192032D01*
X101306Y192112D01*
X100879Y192202D01*
X100455Y192303D01*
X100033Y192414D01*
X99614Y192536D01*
X99198Y192667D01*
X98785Y192809D01*
X98376Y192961D01*
X97971Y193123D01*
X97570Y193295D01*
X97173Y193477D01*
X96781Y193668D01*
X96394Y193869D01*
X96011Y194080D01*
X95634Y194300D01*
X95263Y194529D01*
X94897Y194766D01*
X94537Y195013D01*
X94183Y195269D01*
X93836Y195533D01*
X93495Y195806D01*
X93162Y196087D01*
X92835Y196376D01*
X92515Y196673D01*
X92203Y196978D01*
X91898Y197290D01*
X91601Y197610D01*
X91312Y197937D01*
X91031Y198270D01*
X90758Y198611D01*
X90494Y198958D01*
X90238Y199312D01*
X89991Y199672D01*
X89754Y200038D01*
X89525Y200409D01*
X89305Y200786D01*
X89094Y201169D01*
X88893Y201556D01*
X88702Y201948D01*
X88520Y202345D01*
X88348Y202746D01*
X88186Y203151D01*
X88034Y203560D01*
X87892Y203973D01*
X87761Y204389D01*
X87639Y204808D01*
X87528Y205230D01*
X87427Y205654D01*
X87337Y206081D01*
X87257Y206510D01*
X87187Y206941D01*
X87129Y207374D01*
X87081Y207807D01*
X87043Y208242D01*
X87016Y208678D01*
X87000Y209114D01*
X86995Y209550D01*
D16*
X31365Y227455D02*
X31365Y236095D01*
X38485Y236095D02*
X38485Y227455D01*
D20*
X34925Y225425D03*
X34925Y238125D03*
D16*
X31365Y204345D02*
X31365Y195705D01*
X38485Y195705D02*
X38485Y204345D01*
D20*
X34925Y193675D03*
X34925Y206375D03*
D11*
X34540Y178945D02*
X41660Y178945D01*
X41660Y170435D02*
X34540Y170435D01*
D12*
X32219Y174676D03*
X43903Y174676D03*
D17*
X109538Y41275D02*
X103188Y34925D01*
X109538Y41275D02*
X122238Y41275D01*
X128588Y34925D01*
X128588Y22225D02*
X122238Y15875D01*
X109538Y15875D01*
X103188Y22225D01*
X71438Y41275D02*
X58738Y41275D01*
X71438Y41275D02*
X77788Y34925D01*
X77788Y22225D02*
X71438Y15875D01*
X77788Y34925D02*
X84138Y41275D01*
X96838Y41275D01*
X103188Y34925D01*
X103188Y22225D02*
X96838Y15875D01*
X84138Y15875D01*
X77788Y22225D01*
X52388Y22225D02*
X52388Y34925D01*
X58738Y41275D01*
X52388Y22225D02*
X58738Y15875D01*
X71438Y15875D01*
X128588Y22225D02*
X128588Y34925D01*
D21*
X115888Y28575D03*
X90488Y28575D03*
X65088Y28575D03*
D16*
X31365Y60768D02*
X31365Y69408D01*
X38485Y69408D02*
X38485Y60768D01*
D20*
X34925Y58738D03*
X34925Y71438D03*
D16*
X140903Y70995D02*
X140903Y62355D01*
X148023Y62355D02*
X148023Y70995D01*
D20*
X144463Y60325D03*
X144463Y73025D03*
D11*
X41175Y34663D02*
X41175Y25663D01*
X28675Y25663D02*
X28675Y34913D01*
D23*
X40925Y28663D03*
X28925Y28663D03*
D24*
X34925Y28663D03*
D25*
X34925Y22663D03*
X34925Y37663D03*
D11*
X150713Y36250D02*
X150713Y27250D01*
X138213Y27250D02*
X138213Y36500D01*
D23*
X150463Y30250D03*
X138463Y30250D03*
D24*
X144463Y30250D03*
D25*
X144463Y24250D03*
X144463Y39250D03*
M02*
