M48
;GenerationSoftware,Autodesk,EAGLE,9.6.2*%
;CreationDate,2021-10-25T18:50:37Z*%
FMAT,2
ICI,OFF
METRIC,TZ,000.000
T4C0.350
T3C0.914
T2C1.016
T1C1.651
%
G90
M71
T1
X16510Y1270
X1270Y1270
X16510Y41910
X1270Y41910
T2
X13729Y30201
X7226Y30201
X4921Y34766
X7461Y34766
X10001Y34766
X13729Y25679
X6509Y6032
X9049Y6032
X11589Y6032
X12541Y34766
X7226Y25679
X7226Y23216
X13729Y23216
X7226Y18694
X13729Y18694
X6509Y2857
X9049Y2857
X11589Y2857
T3
X1270Y16510
X1270Y13970
X1270Y11430
X1270Y8890
X1270Y6350
X1270Y3810
X16510Y39370
X1270Y36830
X16510Y34290
X16510Y31750
X16510Y29210
X16510Y26670
X16510Y24130
X16510Y21590
X16510Y19050
X16510Y16510
X16510Y13970
X16510Y11430
X16510Y8890
X16510Y6350
X16510Y3810
X1270Y39370
X16510Y36830
X1270Y34290
X1270Y31750
X1270Y29210
X1270Y26670
X1270Y24130
X1270Y21590
X1270Y19050
T4
X8890Y11112
X5556Y19050
X5398Y952
X13017Y16351
X4763Y24447
X4445Y15240
M30