G04 EAGLE Gerber RS-274X export*
G75*
%MOMM*%
%FSLAX34Y34*%
%LPD*%
%INBottom layer*%
%IPPOS*%
%AMOC8*
5,1,8,0,0,1.08239X$1,22.5*%
G01*
%ADD10C,0.000000*%
%ADD11C,1.879600*%
%ADD12R,1.778000X1.778000*%
%ADD13C,1.778000*%
%ADD14C,0.654800*%
%ADD15C,0.406400*%

G36*
X151971Y5087D02*
X151971Y5087D01*
X152021Y5085D01*
X152128Y5107D01*
X152237Y5121D01*
X152284Y5139D01*
X152332Y5149D01*
X152431Y5197D01*
X152533Y5238D01*
X152573Y5267D01*
X152618Y5289D01*
X152702Y5360D01*
X152791Y5424D01*
X152822Y5463D01*
X152860Y5495D01*
X152923Y5585D01*
X152993Y5669D01*
X153014Y5714D01*
X153043Y5755D01*
X153082Y5858D01*
X153129Y5957D01*
X153138Y6006D01*
X153156Y6052D01*
X153168Y6162D01*
X153189Y6269D01*
X153186Y6319D01*
X153191Y6368D01*
X153176Y6477D01*
X153169Y6587D01*
X153154Y6634D01*
X153147Y6683D01*
X153095Y6836D01*
X151764Y10047D01*
X151764Y15353D01*
X153794Y20254D01*
X157546Y24006D01*
X161566Y25671D01*
X161687Y25740D01*
X161810Y25805D01*
X161825Y25818D01*
X161842Y25828D01*
X161942Y25925D01*
X162045Y26019D01*
X162056Y26035D01*
X162071Y26050D01*
X162143Y26168D01*
X162220Y26284D01*
X162227Y26303D01*
X162237Y26321D01*
X162278Y26453D01*
X162323Y26585D01*
X162325Y26605D01*
X162331Y26625D01*
X162337Y26763D01*
X162348Y26902D01*
X162345Y26922D01*
X162346Y26942D01*
X162318Y27078D01*
X162294Y27215D01*
X162286Y27234D01*
X162282Y27254D01*
X162220Y27379D01*
X162163Y27505D01*
X162151Y27521D01*
X162142Y27539D01*
X162052Y27645D01*
X161965Y27754D01*
X161949Y27766D01*
X161936Y27781D01*
X161822Y27861D01*
X161711Y27945D01*
X161686Y27957D01*
X161675Y27965D01*
X161656Y27972D01*
X161566Y28016D01*
X159057Y29055D01*
X156055Y32057D01*
X154431Y35978D01*
X154431Y40222D01*
X156055Y44143D01*
X159057Y47145D01*
X162978Y48769D01*
X167222Y48769D01*
X170764Y47302D01*
X170812Y47288D01*
X170857Y47267D01*
X170965Y47247D01*
X171071Y47218D01*
X171121Y47217D01*
X171170Y47207D01*
X171279Y47214D01*
X171389Y47213D01*
X171437Y47224D01*
X171487Y47227D01*
X171591Y47261D01*
X171698Y47287D01*
X171742Y47310D01*
X171789Y47325D01*
X171882Y47384D01*
X171979Y47435D01*
X172016Y47469D01*
X172058Y47495D01*
X172133Y47575D01*
X172215Y47649D01*
X172242Y47691D01*
X172276Y47727D01*
X172329Y47823D01*
X172389Y47915D01*
X172406Y47962D01*
X172430Y48006D01*
X172457Y48112D01*
X172493Y48216D01*
X172497Y48265D01*
X172509Y48313D01*
X172519Y48474D01*
X172519Y53126D01*
X172513Y53175D01*
X172515Y53225D01*
X172493Y53332D01*
X172479Y53441D01*
X172461Y53488D01*
X172451Y53536D01*
X172403Y53635D01*
X172362Y53737D01*
X172333Y53777D01*
X172311Y53822D01*
X172240Y53905D01*
X172176Y53994D01*
X172137Y54026D01*
X172105Y54064D01*
X172015Y54127D01*
X171931Y54197D01*
X171886Y54218D01*
X171845Y54247D01*
X171742Y54286D01*
X171643Y54333D01*
X171594Y54342D01*
X171548Y54360D01*
X171438Y54372D01*
X171331Y54393D01*
X171281Y54389D01*
X171232Y54395D01*
X171123Y54380D01*
X171013Y54373D01*
X170966Y54357D01*
X170917Y54351D01*
X170764Y54298D01*
X167222Y52831D01*
X162978Y52831D01*
X159057Y54455D01*
X156055Y57457D01*
X154431Y61378D01*
X154431Y65622D01*
X156055Y69543D01*
X159057Y72545D01*
X162978Y74169D01*
X167222Y74169D01*
X170764Y72702D01*
X170812Y72688D01*
X170857Y72667D01*
X170965Y72647D01*
X171071Y72618D01*
X171121Y72617D01*
X171170Y72607D01*
X171279Y72614D01*
X171389Y72613D01*
X171437Y72624D01*
X171487Y72627D01*
X171591Y72661D01*
X171698Y72687D01*
X171742Y72710D01*
X171789Y72725D01*
X171882Y72784D01*
X171979Y72835D01*
X172016Y72869D01*
X172058Y72895D01*
X172133Y72975D01*
X172215Y73049D01*
X172242Y73091D01*
X172276Y73127D01*
X172329Y73223D01*
X172389Y73315D01*
X172406Y73362D01*
X172430Y73406D01*
X172457Y73512D01*
X172493Y73616D01*
X172497Y73665D01*
X172509Y73713D01*
X172519Y73874D01*
X172519Y78526D01*
X172513Y78575D01*
X172515Y78625D01*
X172493Y78732D01*
X172479Y78841D01*
X172461Y78888D01*
X172451Y78936D01*
X172403Y79035D01*
X172362Y79137D01*
X172333Y79177D01*
X172311Y79222D01*
X172240Y79305D01*
X172176Y79394D01*
X172137Y79426D01*
X172105Y79464D01*
X172015Y79527D01*
X171931Y79597D01*
X171886Y79618D01*
X171845Y79647D01*
X171742Y79686D01*
X171643Y79733D01*
X171594Y79742D01*
X171548Y79760D01*
X171438Y79772D01*
X171331Y79793D01*
X171281Y79789D01*
X171232Y79795D01*
X171123Y79780D01*
X171013Y79773D01*
X170966Y79757D01*
X170917Y79751D01*
X170764Y79698D01*
X167222Y78231D01*
X162978Y78231D01*
X159057Y79855D01*
X156055Y82857D01*
X154431Y86778D01*
X154431Y91022D01*
X156055Y94943D01*
X159057Y97945D01*
X162978Y99569D01*
X167222Y99569D01*
X170764Y98102D01*
X170812Y98088D01*
X170857Y98067D01*
X170965Y98047D01*
X171071Y98018D01*
X171121Y98017D01*
X171170Y98007D01*
X171279Y98014D01*
X171389Y98013D01*
X171437Y98024D01*
X171487Y98027D01*
X171591Y98061D01*
X171698Y98087D01*
X171742Y98110D01*
X171789Y98125D01*
X171882Y98184D01*
X171979Y98235D01*
X172016Y98269D01*
X172058Y98295D01*
X172133Y98375D01*
X172215Y98449D01*
X172242Y98491D01*
X172276Y98527D01*
X172329Y98623D01*
X172389Y98715D01*
X172406Y98762D01*
X172430Y98806D01*
X172457Y98912D01*
X172493Y99016D01*
X172497Y99065D01*
X172509Y99113D01*
X172519Y99274D01*
X172519Y103926D01*
X172513Y103975D01*
X172515Y104025D01*
X172493Y104132D01*
X172479Y104241D01*
X172461Y104288D01*
X172451Y104336D01*
X172403Y104435D01*
X172362Y104537D01*
X172333Y104577D01*
X172311Y104622D01*
X172240Y104705D01*
X172176Y104794D01*
X172137Y104826D01*
X172105Y104864D01*
X172015Y104927D01*
X171931Y104997D01*
X171886Y105018D01*
X171845Y105047D01*
X171742Y105086D01*
X171643Y105133D01*
X171594Y105142D01*
X171548Y105160D01*
X171438Y105172D01*
X171331Y105193D01*
X171281Y105189D01*
X171232Y105195D01*
X171123Y105180D01*
X171013Y105173D01*
X170966Y105157D01*
X170917Y105151D01*
X170764Y105098D01*
X167222Y103631D01*
X162978Y103631D01*
X159057Y105255D01*
X156055Y108257D01*
X154431Y112178D01*
X154431Y116422D01*
X156055Y120343D01*
X159057Y123345D01*
X162978Y124969D01*
X167222Y124969D01*
X170764Y123502D01*
X170812Y123488D01*
X170857Y123467D01*
X170965Y123447D01*
X171071Y123418D01*
X171121Y123417D01*
X171170Y123407D01*
X171279Y123414D01*
X171389Y123413D01*
X171437Y123424D01*
X171487Y123427D01*
X171591Y123461D01*
X171698Y123487D01*
X171742Y123510D01*
X171789Y123525D01*
X171882Y123584D01*
X171979Y123635D01*
X172016Y123669D01*
X172058Y123695D01*
X172133Y123775D01*
X172215Y123849D01*
X172242Y123891D01*
X172276Y123927D01*
X172329Y124023D01*
X172389Y124115D01*
X172406Y124162D01*
X172430Y124206D01*
X172457Y124312D01*
X172493Y124416D01*
X172497Y124465D01*
X172509Y124513D01*
X172519Y124674D01*
X172519Y129326D01*
X172513Y129375D01*
X172515Y129425D01*
X172493Y129532D01*
X172479Y129641D01*
X172461Y129688D01*
X172451Y129736D01*
X172403Y129835D01*
X172362Y129937D01*
X172333Y129977D01*
X172311Y130022D01*
X172240Y130105D01*
X172176Y130194D01*
X172137Y130226D01*
X172105Y130264D01*
X172015Y130327D01*
X171931Y130397D01*
X171886Y130418D01*
X171845Y130447D01*
X171742Y130486D01*
X171643Y130533D01*
X171594Y130542D01*
X171548Y130560D01*
X171438Y130572D01*
X171331Y130593D01*
X171281Y130589D01*
X171232Y130595D01*
X171123Y130580D01*
X171013Y130573D01*
X170966Y130557D01*
X170917Y130551D01*
X170764Y130498D01*
X167222Y129031D01*
X162978Y129031D01*
X159057Y130655D01*
X156055Y133657D01*
X154431Y137578D01*
X154431Y141822D01*
X156055Y145743D01*
X159057Y148745D01*
X162978Y150369D01*
X167222Y150369D01*
X170764Y148902D01*
X170812Y148888D01*
X170857Y148867D01*
X170965Y148847D01*
X171071Y148818D01*
X171121Y148817D01*
X171170Y148807D01*
X171279Y148814D01*
X171389Y148813D01*
X171437Y148824D01*
X171487Y148827D01*
X171591Y148861D01*
X171698Y148887D01*
X171742Y148910D01*
X171789Y148925D01*
X171882Y148984D01*
X171979Y149035D01*
X172016Y149069D01*
X172058Y149095D01*
X172133Y149175D01*
X172215Y149249D01*
X172242Y149291D01*
X172276Y149327D01*
X172329Y149423D01*
X172389Y149515D01*
X172406Y149562D01*
X172430Y149606D01*
X172457Y149712D01*
X172493Y149816D01*
X172497Y149865D01*
X172509Y149913D01*
X172519Y150074D01*
X172519Y154726D01*
X172513Y154775D01*
X172515Y154825D01*
X172493Y154932D01*
X172479Y155041D01*
X172461Y155088D01*
X172451Y155136D01*
X172403Y155235D01*
X172362Y155337D01*
X172333Y155377D01*
X172311Y155422D01*
X172240Y155505D01*
X172176Y155594D01*
X172137Y155626D01*
X172105Y155664D01*
X172015Y155727D01*
X171931Y155797D01*
X171886Y155818D01*
X171845Y155847D01*
X171742Y155886D01*
X171643Y155933D01*
X171594Y155942D01*
X171548Y155960D01*
X171438Y155972D01*
X171331Y155993D01*
X171281Y155989D01*
X171232Y155995D01*
X171123Y155980D01*
X171013Y155973D01*
X170966Y155957D01*
X170917Y155951D01*
X170764Y155898D01*
X167222Y154431D01*
X162978Y154431D01*
X159057Y156055D01*
X156055Y159057D01*
X154431Y162978D01*
X154431Y167222D01*
X156055Y171143D01*
X159057Y174145D01*
X162978Y175769D01*
X167222Y175769D01*
X170764Y174302D01*
X170812Y174288D01*
X170857Y174267D01*
X170965Y174247D01*
X171071Y174218D01*
X171121Y174217D01*
X171170Y174207D01*
X171279Y174214D01*
X171389Y174213D01*
X171437Y174224D01*
X171487Y174227D01*
X171591Y174261D01*
X171698Y174287D01*
X171742Y174310D01*
X171789Y174325D01*
X171882Y174384D01*
X171979Y174435D01*
X172016Y174469D01*
X172058Y174495D01*
X172133Y174575D01*
X172215Y174649D01*
X172242Y174691D01*
X172276Y174727D01*
X172329Y174823D01*
X172389Y174915D01*
X172406Y174962D01*
X172430Y175006D01*
X172457Y175112D01*
X172493Y175216D01*
X172497Y175265D01*
X172509Y175313D01*
X172519Y175474D01*
X172519Y180126D01*
X172513Y180175D01*
X172515Y180225D01*
X172493Y180332D01*
X172479Y180441D01*
X172461Y180488D01*
X172451Y180536D01*
X172403Y180635D01*
X172362Y180737D01*
X172333Y180777D01*
X172311Y180822D01*
X172240Y180905D01*
X172176Y180994D01*
X172137Y181026D01*
X172105Y181064D01*
X172015Y181127D01*
X171931Y181197D01*
X171886Y181218D01*
X171845Y181247D01*
X171742Y181286D01*
X171643Y181333D01*
X171594Y181342D01*
X171548Y181360D01*
X171438Y181372D01*
X171331Y181393D01*
X171281Y181389D01*
X171232Y181395D01*
X171123Y181380D01*
X171013Y181373D01*
X170966Y181357D01*
X170917Y181351D01*
X170764Y181298D01*
X167222Y179831D01*
X162978Y179831D01*
X159057Y181455D01*
X156055Y184457D01*
X154431Y188378D01*
X154431Y192622D01*
X156055Y196543D01*
X159057Y199545D01*
X162978Y201169D01*
X167222Y201169D01*
X170764Y199702D01*
X170812Y199688D01*
X170857Y199667D01*
X170965Y199647D01*
X171071Y199618D01*
X171121Y199617D01*
X171170Y199607D01*
X171279Y199614D01*
X171389Y199613D01*
X171437Y199624D01*
X171487Y199627D01*
X171591Y199661D01*
X171698Y199687D01*
X171742Y199710D01*
X171789Y199725D01*
X171882Y199784D01*
X171979Y199835D01*
X172016Y199869D01*
X172058Y199895D01*
X172133Y199975D01*
X172215Y200049D01*
X172242Y200091D01*
X172276Y200127D01*
X172329Y200223D01*
X172389Y200315D01*
X172406Y200362D01*
X172430Y200406D01*
X172457Y200512D01*
X172493Y200616D01*
X172497Y200665D01*
X172509Y200713D01*
X172519Y200874D01*
X172519Y205526D01*
X172513Y205575D01*
X172515Y205625D01*
X172493Y205732D01*
X172479Y205841D01*
X172461Y205888D01*
X172451Y205936D01*
X172403Y206035D01*
X172362Y206137D01*
X172333Y206177D01*
X172311Y206222D01*
X172240Y206305D01*
X172176Y206394D01*
X172137Y206426D01*
X172105Y206464D01*
X172015Y206527D01*
X171931Y206597D01*
X171886Y206618D01*
X171845Y206647D01*
X171742Y206686D01*
X171643Y206733D01*
X171594Y206742D01*
X171548Y206760D01*
X171438Y206772D01*
X171331Y206793D01*
X171281Y206789D01*
X171232Y206795D01*
X171123Y206780D01*
X171013Y206773D01*
X170966Y206757D01*
X170917Y206751D01*
X170764Y206698D01*
X167222Y205231D01*
X162978Y205231D01*
X159057Y206855D01*
X156055Y209857D01*
X154431Y213778D01*
X154431Y218022D01*
X156055Y221943D01*
X159057Y224945D01*
X162978Y226569D01*
X167222Y226569D01*
X170764Y225102D01*
X170812Y225088D01*
X170857Y225067D01*
X170965Y225047D01*
X171071Y225018D01*
X171121Y225017D01*
X171170Y225007D01*
X171279Y225014D01*
X171389Y225013D01*
X171437Y225024D01*
X171487Y225027D01*
X171591Y225061D01*
X171698Y225087D01*
X171742Y225110D01*
X171789Y225125D01*
X171882Y225184D01*
X171979Y225235D01*
X172016Y225269D01*
X172058Y225295D01*
X172133Y225375D01*
X172215Y225449D01*
X172242Y225491D01*
X172276Y225527D01*
X172329Y225623D01*
X172389Y225715D01*
X172406Y225762D01*
X172430Y225806D01*
X172457Y225912D01*
X172493Y226016D01*
X172497Y226065D01*
X172509Y226113D01*
X172519Y226274D01*
X172519Y230926D01*
X172513Y230975D01*
X172515Y231025D01*
X172493Y231132D01*
X172479Y231241D01*
X172461Y231288D01*
X172451Y231336D01*
X172403Y231435D01*
X172362Y231537D01*
X172333Y231577D01*
X172311Y231622D01*
X172240Y231705D01*
X172176Y231794D01*
X172137Y231826D01*
X172105Y231864D01*
X172015Y231927D01*
X171931Y231997D01*
X171886Y232018D01*
X171845Y232047D01*
X171742Y232086D01*
X171643Y232133D01*
X171594Y232142D01*
X171548Y232160D01*
X171438Y232172D01*
X171331Y232193D01*
X171281Y232189D01*
X171232Y232195D01*
X171123Y232180D01*
X171013Y232173D01*
X170966Y232157D01*
X170917Y232151D01*
X170764Y232098D01*
X167222Y230631D01*
X162978Y230631D01*
X159057Y232255D01*
X156055Y235257D01*
X154431Y239178D01*
X154431Y243422D01*
X156055Y247343D01*
X159057Y250345D01*
X162978Y251969D01*
X167222Y251969D01*
X170764Y250502D01*
X170812Y250488D01*
X170857Y250467D01*
X170965Y250447D01*
X171071Y250418D01*
X171121Y250417D01*
X171170Y250407D01*
X171279Y250414D01*
X171389Y250413D01*
X171437Y250424D01*
X171487Y250427D01*
X171591Y250461D01*
X171698Y250487D01*
X171742Y250510D01*
X171789Y250525D01*
X171882Y250584D01*
X171979Y250635D01*
X172016Y250669D01*
X172058Y250695D01*
X172133Y250775D01*
X172215Y250849D01*
X172242Y250891D01*
X172276Y250927D01*
X172329Y251023D01*
X172389Y251115D01*
X172406Y251162D01*
X172430Y251206D01*
X172457Y251312D01*
X172493Y251416D01*
X172497Y251465D01*
X172509Y251513D01*
X172519Y251674D01*
X172519Y256326D01*
X172513Y256375D01*
X172515Y256425D01*
X172493Y256532D01*
X172479Y256641D01*
X172461Y256688D01*
X172451Y256736D01*
X172403Y256835D01*
X172362Y256937D01*
X172333Y256977D01*
X172311Y257022D01*
X172240Y257105D01*
X172176Y257194D01*
X172137Y257226D01*
X172105Y257264D01*
X172015Y257327D01*
X171931Y257397D01*
X171886Y257418D01*
X171845Y257447D01*
X171742Y257486D01*
X171643Y257533D01*
X171594Y257542D01*
X171548Y257560D01*
X171438Y257572D01*
X171331Y257593D01*
X171281Y257589D01*
X171232Y257595D01*
X171123Y257580D01*
X171013Y257573D01*
X170966Y257557D01*
X170917Y257551D01*
X170764Y257498D01*
X167222Y256031D01*
X162978Y256031D01*
X159057Y257655D01*
X156055Y260657D01*
X154431Y264578D01*
X154431Y268822D01*
X156055Y272743D01*
X159057Y275745D01*
X162978Y277369D01*
X167222Y277369D01*
X170764Y275902D01*
X170812Y275888D01*
X170857Y275867D01*
X170965Y275847D01*
X171071Y275818D01*
X171121Y275817D01*
X171170Y275807D01*
X171279Y275814D01*
X171389Y275813D01*
X171437Y275824D01*
X171487Y275827D01*
X171591Y275861D01*
X171698Y275887D01*
X171742Y275910D01*
X171789Y275925D01*
X171882Y275984D01*
X171979Y276035D01*
X172016Y276069D01*
X172058Y276095D01*
X172133Y276175D01*
X172215Y276249D01*
X172242Y276291D01*
X172276Y276327D01*
X172329Y276423D01*
X172389Y276515D01*
X172406Y276562D01*
X172430Y276606D01*
X172457Y276712D01*
X172493Y276816D01*
X172497Y276865D01*
X172509Y276913D01*
X172519Y277074D01*
X172519Y281726D01*
X172513Y281775D01*
X172515Y281825D01*
X172493Y281932D01*
X172479Y282041D01*
X172461Y282088D01*
X172451Y282136D01*
X172403Y282235D01*
X172362Y282337D01*
X172333Y282377D01*
X172311Y282422D01*
X172240Y282505D01*
X172176Y282594D01*
X172137Y282626D01*
X172105Y282664D01*
X172015Y282727D01*
X171931Y282797D01*
X171886Y282818D01*
X171845Y282847D01*
X171742Y282886D01*
X171643Y282933D01*
X171594Y282942D01*
X171548Y282960D01*
X171438Y282972D01*
X171331Y282993D01*
X171281Y282989D01*
X171232Y282995D01*
X171123Y282980D01*
X171013Y282973D01*
X170966Y282957D01*
X170917Y282951D01*
X170764Y282898D01*
X167222Y281431D01*
X162978Y281431D01*
X159057Y283055D01*
X156055Y286057D01*
X154431Y289978D01*
X154431Y294222D01*
X156055Y298143D01*
X159057Y301145D01*
X162978Y302769D01*
X167222Y302769D01*
X170764Y301302D01*
X170812Y301288D01*
X170857Y301267D01*
X170965Y301247D01*
X171071Y301218D01*
X171121Y301217D01*
X171170Y301207D01*
X171279Y301214D01*
X171389Y301213D01*
X171437Y301224D01*
X171487Y301227D01*
X171591Y301261D01*
X171698Y301287D01*
X171742Y301310D01*
X171789Y301325D01*
X171882Y301384D01*
X171979Y301435D01*
X172016Y301469D01*
X172058Y301495D01*
X172133Y301575D01*
X172215Y301649D01*
X172242Y301691D01*
X172276Y301727D01*
X172329Y301823D01*
X172389Y301915D01*
X172406Y301962D01*
X172430Y302006D01*
X172457Y302112D01*
X172493Y302216D01*
X172497Y302265D01*
X172509Y302313D01*
X172519Y302474D01*
X172519Y307126D01*
X172513Y307175D01*
X172515Y307225D01*
X172493Y307332D01*
X172479Y307441D01*
X172461Y307488D01*
X172451Y307536D01*
X172403Y307635D01*
X172362Y307737D01*
X172333Y307777D01*
X172311Y307822D01*
X172240Y307905D01*
X172176Y307994D01*
X172137Y308026D01*
X172105Y308064D01*
X172015Y308127D01*
X171931Y308197D01*
X171886Y308218D01*
X171845Y308247D01*
X171742Y308286D01*
X171643Y308333D01*
X171594Y308342D01*
X171548Y308360D01*
X171438Y308372D01*
X171331Y308393D01*
X171281Y308389D01*
X171232Y308395D01*
X171123Y308380D01*
X171013Y308373D01*
X170966Y308357D01*
X170917Y308351D01*
X170764Y308298D01*
X167222Y306831D01*
X162978Y306831D01*
X159057Y308455D01*
X156055Y311457D01*
X155455Y312906D01*
X155441Y312931D01*
X155432Y312959D01*
X155362Y313069D01*
X155298Y313182D01*
X155277Y313203D01*
X155261Y313228D01*
X155167Y313317D01*
X155076Y313410D01*
X155051Y313426D01*
X155030Y313446D01*
X154916Y313509D01*
X154805Y313577D01*
X154777Y313585D01*
X154751Y313600D01*
X154625Y313632D01*
X154501Y313670D01*
X154472Y313672D01*
X154443Y313679D01*
X154283Y313689D01*
X144474Y313689D01*
X144337Y313672D01*
X144198Y313659D01*
X144179Y313652D01*
X144159Y313649D01*
X144030Y313598D01*
X143899Y313551D01*
X143882Y313540D01*
X143863Y313532D01*
X143751Y313451D01*
X143635Y313373D01*
X143622Y313357D01*
X143606Y313346D01*
X143517Y313238D01*
X143425Y313134D01*
X143416Y313116D01*
X143403Y313101D01*
X143344Y312975D01*
X143280Y312851D01*
X143276Y312831D01*
X143267Y312813D01*
X143241Y312677D01*
X143211Y312541D01*
X143211Y312520D01*
X143208Y312501D01*
X143216Y312362D01*
X143220Y312223D01*
X143226Y312203D01*
X143227Y312183D01*
X143270Y312051D01*
X143309Y311917D01*
X143319Y311900D01*
X143325Y311881D01*
X143400Y311763D01*
X143470Y311643D01*
X143489Y311622D01*
X143495Y311612D01*
X143510Y311598D01*
X143577Y311523D01*
X146762Y308337D01*
X148464Y304229D01*
X148464Y299783D01*
X146762Y295675D01*
X143618Y292531D01*
X139510Y290829D01*
X135064Y290829D01*
X130956Y292531D01*
X127812Y295675D01*
X126110Y299783D01*
X126110Y304229D01*
X127812Y308337D01*
X130997Y311523D01*
X131083Y311632D01*
X131171Y311739D01*
X131180Y311758D01*
X131192Y311774D01*
X131248Y311902D01*
X131307Y312027D01*
X131310Y312047D01*
X131319Y312066D01*
X131340Y312204D01*
X131366Y312340D01*
X131365Y312360D01*
X131368Y312380D01*
X131355Y312519D01*
X131347Y312657D01*
X131340Y312676D01*
X131339Y312696D01*
X131291Y312828D01*
X131249Y312959D01*
X131238Y312977D01*
X131231Y312996D01*
X131153Y313111D01*
X131079Y313228D01*
X131064Y313242D01*
X131052Y313259D01*
X130948Y313351D01*
X130847Y313446D01*
X130829Y313456D01*
X130814Y313469D01*
X130690Y313533D01*
X130568Y313600D01*
X130549Y313605D01*
X130531Y313614D01*
X130395Y313644D01*
X130260Y313679D01*
X130232Y313681D01*
X130220Y313684D01*
X130200Y313683D01*
X130100Y313689D01*
X80400Y313689D01*
X80321Y313679D01*
X80241Y313679D01*
X80164Y313659D01*
X80085Y313649D01*
X80010Y313620D01*
X79933Y313600D01*
X79863Y313562D01*
X79789Y313532D01*
X79724Y313486D01*
X79655Y313447D01*
X79596Y313393D01*
X79532Y313346D01*
X79481Y313284D01*
X79423Y313230D01*
X79380Y313162D01*
X79329Y313101D01*
X79295Y313029D01*
X79252Y312961D01*
X79227Y312885D01*
X79193Y312813D01*
X79178Y312735D01*
X79154Y312659D01*
X79148Y312579D01*
X79133Y312501D01*
X79138Y312421D01*
X79133Y312342D01*
X79148Y312263D01*
X79153Y312183D01*
X79178Y312107D01*
X79193Y312029D01*
X79227Y311957D01*
X79251Y311881D01*
X79294Y311813D01*
X79328Y311741D01*
X79379Y311679D01*
X79421Y311612D01*
X79479Y311557D01*
X79530Y311496D01*
X79652Y311395D01*
X79653Y311394D01*
X79654Y311393D01*
X80040Y311112D01*
X81369Y309784D01*
X82474Y308263D01*
X83327Y306589D01*
X83908Y304802D01*
X83948Y304545D01*
X74802Y304545D01*
X74802Y313730D01*
X74817Y313729D01*
X74895Y313747D01*
X74974Y313754D01*
X75050Y313781D01*
X75128Y313799D01*
X75199Y313835D01*
X75273Y313862D01*
X75340Y313907D01*
X75411Y313943D01*
X75471Y313996D01*
X75537Y314040D01*
X75590Y314100D01*
X75650Y314153D01*
X75694Y314219D01*
X75747Y314279D01*
X75784Y314350D01*
X75828Y314416D01*
X75855Y314491D01*
X75892Y314562D01*
X75909Y314640D01*
X75936Y314715D01*
X75944Y314795D01*
X75961Y314872D01*
X75959Y314952D01*
X75967Y315032D01*
X75954Y315111D01*
X75952Y315190D01*
X75929Y315267D01*
X75917Y315346D01*
X75885Y315419D01*
X75863Y315496D01*
X75823Y315564D01*
X75791Y315638D01*
X75742Y315701D01*
X75702Y315770D01*
X75597Y315888D01*
X75596Y315890D01*
X75595Y315890D01*
X55190Y336296D01*
X55080Y336381D01*
X54973Y336470D01*
X54955Y336478D01*
X54939Y336491D01*
X54811Y336546D01*
X54685Y336605D01*
X54666Y336609D01*
X54647Y336617D01*
X54509Y336639D01*
X54373Y336665D01*
X54353Y336664D01*
X54333Y336667D01*
X54194Y336654D01*
X54056Y336645D01*
X54036Y336639D01*
X54016Y336637D01*
X53885Y336590D01*
X53753Y336547D01*
X53736Y336536D01*
X53717Y336530D01*
X53602Y336451D01*
X53484Y336377D01*
X53470Y336362D01*
X53454Y336351D01*
X53362Y336247D01*
X53266Y336145D01*
X53257Y336128D01*
X53243Y336113D01*
X53180Y335989D01*
X53113Y335867D01*
X53108Y335847D01*
X53099Y335829D01*
X53068Y335693D01*
X53033Y335559D01*
X53032Y335531D01*
X53029Y335519D01*
X53030Y335499D01*
X53023Y335398D01*
X53023Y244476D01*
X52989Y244432D01*
X52921Y244360D01*
X52892Y244307D01*
X52855Y244259D01*
X52815Y244168D01*
X52767Y244081D01*
X52752Y244023D01*
X52728Y243967D01*
X52713Y243869D01*
X52688Y243773D01*
X52682Y243673D01*
X52678Y243653D01*
X52680Y243641D01*
X52678Y243613D01*
X52678Y243470D01*
X51909Y241613D01*
X50487Y240191D01*
X48630Y239422D01*
X46620Y239422D01*
X44763Y240191D01*
X44662Y240293D01*
X44584Y240353D01*
X44511Y240421D01*
X44458Y240450D01*
X44411Y240487D01*
X44320Y240527D01*
X44233Y240575D01*
X44174Y240590D01*
X44119Y240614D01*
X44021Y240629D01*
X43925Y240654D01*
X43825Y240660D01*
X43805Y240664D01*
X43792Y240662D01*
X43764Y240664D01*
X40204Y240664D01*
X40106Y240652D01*
X40007Y240649D01*
X39949Y240632D01*
X39889Y240624D01*
X39797Y240588D01*
X39701Y240560D01*
X39649Y240530D01*
X39593Y240507D01*
X39513Y240449D01*
X39428Y240399D01*
X39352Y240333D01*
X39336Y240321D01*
X39328Y240311D01*
X39307Y240293D01*
X37520Y238506D01*
X37459Y238428D01*
X37391Y238355D01*
X37362Y238302D01*
X37325Y238255D01*
X37286Y238164D01*
X37238Y238077D01*
X37223Y238018D01*
X37199Y237963D01*
X37183Y237865D01*
X37158Y237769D01*
X37152Y237669D01*
X37149Y237649D01*
X37150Y237636D01*
X37148Y237608D01*
X37148Y165617D01*
X37161Y165519D01*
X37164Y165419D01*
X37180Y165361D01*
X37188Y165301D01*
X37225Y165209D01*
X37252Y165114D01*
X37283Y165062D01*
X37305Y165005D01*
X37363Y164925D01*
X37414Y164840D01*
X37480Y164765D01*
X37492Y164748D01*
X37501Y164740D01*
X37520Y164719D01*
X44415Y157824D01*
X44493Y157764D01*
X44565Y157696D01*
X44618Y157667D01*
X44666Y157630D01*
X44757Y157590D01*
X44844Y157542D01*
X44902Y157527D01*
X44958Y157503D01*
X45056Y157488D01*
X45152Y157463D01*
X45252Y157457D01*
X45272Y157453D01*
X45284Y157455D01*
X45312Y157453D01*
X45455Y157453D01*
X47312Y156684D01*
X48734Y155262D01*
X49503Y153405D01*
X49503Y151395D01*
X48734Y149538D01*
X47312Y148116D01*
X45455Y147347D01*
X43445Y147347D01*
X41588Y148116D01*
X40166Y149538D01*
X39397Y151395D01*
X39397Y151538D01*
X39385Y151636D01*
X39382Y151735D01*
X39365Y151793D01*
X39357Y151853D01*
X39321Y151945D01*
X39293Y152041D01*
X39263Y152093D01*
X39240Y152149D01*
X39182Y152229D01*
X39132Y152314D01*
X39066Y152390D01*
X39054Y152406D01*
X39044Y152414D01*
X39026Y152435D01*
X29527Y161934D01*
X29527Y241291D01*
X36522Y248286D01*
X43764Y248286D01*
X43863Y248298D01*
X43962Y248301D01*
X44020Y248318D01*
X44080Y248326D01*
X44172Y248362D01*
X44267Y248390D01*
X44319Y248420D01*
X44376Y248443D01*
X44456Y248501D01*
X44541Y248551D01*
X44616Y248617D01*
X44633Y248629D01*
X44641Y248639D01*
X44662Y248657D01*
X44815Y248811D01*
X44894Y248856D01*
X44916Y248877D01*
X44941Y248892D01*
X45030Y248987D01*
X45123Y249077D01*
X45138Y249102D01*
X45159Y249124D01*
X45221Y249238D01*
X45289Y249348D01*
X45298Y249377D01*
X45312Y249403D01*
X45344Y249528D01*
X45383Y249652D01*
X45384Y249682D01*
X45392Y249711D01*
X45402Y249871D01*
X45402Y336295D01*
X45398Y336324D01*
X45400Y336354D01*
X45378Y336482D01*
X45362Y336611D01*
X45351Y336638D01*
X45346Y336667D01*
X45293Y336786D01*
X45245Y336906D01*
X45228Y336930D01*
X45215Y336957D01*
X45134Y337059D01*
X45058Y337164D01*
X45035Y337183D01*
X45017Y337206D01*
X44913Y337284D01*
X44813Y337367D01*
X44786Y337379D01*
X44763Y337397D01*
X44618Y337468D01*
X42881Y338187D01*
X39737Y341331D01*
X38036Y345439D01*
X38036Y349886D01*
X39737Y353994D01*
X42881Y357138D01*
X46989Y358839D01*
X51436Y358839D01*
X55544Y357138D01*
X58688Y353994D01*
X60467Y349699D01*
X60531Y349586D01*
X60589Y349471D01*
X60609Y349449D01*
X60624Y349422D01*
X60714Y349329D01*
X60800Y349233D01*
X60824Y349216D01*
X60846Y349194D01*
X60956Y349126D01*
X61063Y349054D01*
X61091Y349044D01*
X61117Y349028D01*
X61240Y348990D01*
X61362Y348946D01*
X61392Y348943D01*
X61421Y348934D01*
X61549Y348928D01*
X61678Y348916D01*
X61708Y348920D01*
X61738Y348919D01*
X61865Y348945D01*
X61992Y348965D01*
X62020Y348977D01*
X62050Y348983D01*
X62166Y349040D01*
X62284Y349091D01*
X62308Y349110D01*
X62335Y349123D01*
X62434Y349207D01*
X62536Y349286D01*
X62554Y349310D01*
X62577Y349329D01*
X62652Y349435D01*
X62731Y349537D01*
X62743Y349565D01*
X62760Y349589D01*
X62806Y349711D01*
X62858Y349829D01*
X62867Y349871D01*
X62873Y349887D01*
X62876Y349909D01*
X62893Y349986D01*
X62968Y350458D01*
X63548Y352245D01*
X64402Y353920D01*
X65506Y355440D01*
X66835Y356769D01*
X68355Y357873D01*
X70030Y358727D01*
X71817Y359307D01*
X72073Y359348D01*
X72073Y348933D01*
X72088Y348814D01*
X72096Y348696D01*
X72108Y348657D01*
X72113Y348617D01*
X72157Y348506D01*
X72194Y348393D01*
X72215Y348359D01*
X72230Y348321D01*
X72300Y348225D01*
X72364Y348125D01*
X72393Y348097D01*
X72417Y348064D01*
X72509Y347988D01*
X72595Y347907D01*
X72631Y347887D01*
X72662Y347861D01*
X72770Y347811D01*
X72874Y347753D01*
X72913Y347743D01*
X72950Y347726D01*
X73066Y347703D01*
X73182Y347674D01*
X73242Y347670D01*
X73262Y347666D01*
X73282Y347667D01*
X73343Y347663D01*
X74613Y347663D01*
X74613Y347662D01*
X73343Y347662D01*
X73224Y347647D01*
X73106Y347639D01*
X73067Y347627D01*
X73027Y347622D01*
X72916Y347578D01*
X72803Y347541D01*
X72769Y347520D01*
X72731Y347505D01*
X72635Y347435D01*
X72534Y347371D01*
X72507Y347342D01*
X72474Y347318D01*
X72398Y347226D01*
X72316Y347139D01*
X72297Y347104D01*
X72271Y347073D01*
X72220Y346965D01*
X72163Y346861D01*
X72153Y346822D01*
X72136Y346785D01*
X72113Y346668D01*
X72083Y346553D01*
X72080Y346493D01*
X72076Y346473D01*
X72077Y346453D01*
X72073Y346392D01*
X72073Y335977D01*
X71817Y336018D01*
X70030Y336598D01*
X68273Y337494D01*
X68220Y337513D01*
X68180Y337535D01*
X68128Y337548D01*
X68051Y337582D01*
X68011Y337588D01*
X67973Y337601D01*
X67891Y337609D01*
X67872Y337614D01*
X67829Y337617D01*
X67737Y337631D01*
X67697Y337628D01*
X67657Y337631D01*
X67539Y337613D01*
X67420Y337602D01*
X67382Y337588D01*
X67343Y337582D01*
X67233Y337534D01*
X67121Y337494D01*
X67088Y337471D01*
X67051Y337456D01*
X66957Y337382D01*
X66858Y337315D01*
X66831Y337285D01*
X66799Y337261D01*
X66726Y337166D01*
X66647Y337077D01*
X66629Y337041D01*
X66604Y337010D01*
X66557Y336900D01*
X66503Y336794D01*
X66494Y336755D01*
X66478Y336718D01*
X66459Y336600D01*
X66433Y336483D01*
X66434Y336443D01*
X66428Y336404D01*
X66439Y336285D01*
X66443Y336166D01*
X66454Y336127D01*
X66457Y336087D01*
X66498Y335974D01*
X66531Y335860D01*
X66551Y335826D01*
X66565Y335788D01*
X66632Y335689D01*
X66693Y335586D01*
X66721Y335553D01*
X66725Y335547D01*
X66733Y335540D01*
X66743Y335525D01*
X66759Y335511D01*
X66799Y335465D01*
X80582Y321682D01*
X80660Y321622D01*
X80732Y321554D01*
X80785Y321525D01*
X80833Y321488D01*
X80924Y321448D01*
X81011Y321400D01*
X81069Y321385D01*
X81125Y321361D01*
X81223Y321346D01*
X81319Y321321D01*
X81419Y321315D01*
X81439Y321311D01*
X81451Y321313D01*
X81479Y321311D01*
X154283Y321311D01*
X154312Y321314D01*
X154341Y321312D01*
X154470Y321334D01*
X154598Y321351D01*
X154626Y321361D01*
X154655Y321366D01*
X154773Y321420D01*
X154894Y321468D01*
X154918Y321485D01*
X154945Y321497D01*
X155046Y321578D01*
X155151Y321654D01*
X155170Y321677D01*
X155193Y321696D01*
X155271Y321799D01*
X155354Y321899D01*
X155367Y321926D01*
X155384Y321950D01*
X155455Y322094D01*
X156055Y323543D01*
X159057Y326545D01*
X162978Y328169D01*
X167222Y328169D01*
X170764Y326702D01*
X170812Y326688D01*
X170857Y326667D01*
X170965Y326647D01*
X171071Y326618D01*
X171121Y326617D01*
X171170Y326607D01*
X171279Y326614D01*
X171389Y326613D01*
X171437Y326624D01*
X171487Y326627D01*
X171591Y326661D01*
X171698Y326687D01*
X171742Y326710D01*
X171789Y326725D01*
X171882Y326784D01*
X171979Y326835D01*
X172016Y326869D01*
X172058Y326895D01*
X172133Y326975D01*
X172215Y327049D01*
X172242Y327091D01*
X172276Y327127D01*
X172329Y327223D01*
X172389Y327315D01*
X172406Y327362D01*
X172430Y327406D01*
X172457Y327512D01*
X172493Y327616D01*
X172497Y327665D01*
X172509Y327713D01*
X172519Y327874D01*
X172519Y332526D01*
X172513Y332575D01*
X172515Y332625D01*
X172493Y332732D01*
X172479Y332841D01*
X172461Y332887D01*
X172451Y332936D01*
X172403Y333035D01*
X172362Y333137D01*
X172333Y333177D01*
X172311Y333222D01*
X172240Y333306D01*
X172176Y333394D01*
X172137Y333426D01*
X172105Y333464D01*
X172015Y333527D01*
X171931Y333597D01*
X171886Y333618D01*
X171845Y333647D01*
X171742Y333686D01*
X171643Y333733D01*
X171594Y333742D01*
X171548Y333760D01*
X171438Y333772D01*
X171331Y333793D01*
X171281Y333789D01*
X171232Y333795D01*
X171123Y333780D01*
X171013Y333773D01*
X170966Y333757D01*
X170917Y333751D01*
X170764Y333698D01*
X167222Y332231D01*
X162978Y332231D01*
X159057Y333855D01*
X156055Y336857D01*
X154431Y340778D01*
X154431Y345022D01*
X156055Y348943D01*
X159057Y351945D01*
X162978Y353569D01*
X167222Y353569D01*
X170764Y352102D01*
X170812Y352088D01*
X170857Y352067D01*
X170965Y352047D01*
X171071Y352018D01*
X171121Y352017D01*
X171170Y352007D01*
X171279Y352014D01*
X171389Y352013D01*
X171437Y352024D01*
X171487Y352027D01*
X171591Y352061D01*
X171698Y352087D01*
X171742Y352110D01*
X171789Y352125D01*
X171882Y352184D01*
X171979Y352235D01*
X172016Y352269D01*
X172058Y352295D01*
X172133Y352376D01*
X172215Y352449D01*
X172242Y352491D01*
X172276Y352527D01*
X172329Y352623D01*
X172389Y352715D01*
X172406Y352762D01*
X172430Y352806D01*
X172457Y352912D01*
X172493Y353016D01*
X172497Y353065D01*
X172509Y353113D01*
X172519Y353274D01*
X172519Y357180D01*
X172507Y357279D01*
X172504Y357378D01*
X172487Y357436D01*
X172479Y357496D01*
X172443Y357588D01*
X172415Y357683D01*
X172385Y357735D01*
X172362Y357791D01*
X172304Y357872D01*
X172253Y357957D01*
X172211Y358000D01*
X172176Y358049D01*
X172099Y358112D01*
X172029Y358182D01*
X171977Y358213D01*
X171931Y358251D01*
X171841Y358294D01*
X171755Y358344D01*
X171697Y358361D01*
X171643Y358387D01*
X171545Y358406D01*
X171450Y358433D01*
X171390Y358435D01*
X171331Y358447D01*
X171231Y358441D01*
X171132Y358444D01*
X171073Y358431D01*
X171013Y358427D01*
X170919Y358396D01*
X170822Y358375D01*
X170730Y358335D01*
X170711Y358329D01*
X170700Y358322D01*
X170674Y358311D01*
X169488Y357707D01*
X167777Y357151D01*
X167385Y357089D01*
X167385Y367284D01*
X167370Y367402D01*
X167363Y367521D01*
X167350Y367559D01*
X167345Y367599D01*
X167302Y367710D01*
X167265Y367823D01*
X167243Y367857D01*
X167228Y367895D01*
X167159Y367991D01*
X167095Y368092D01*
X167065Y368120D01*
X167042Y368152D01*
X166950Y368228D01*
X166870Y368303D01*
X166924Y368337D01*
X166952Y368367D01*
X166985Y368391D01*
X167061Y368482D01*
X167142Y368569D01*
X167162Y368604D01*
X167187Y368636D01*
X167238Y368743D01*
X167296Y368848D01*
X167306Y368887D01*
X167323Y368923D01*
X167345Y369040D01*
X167375Y369156D01*
X167379Y369216D01*
X167383Y369236D01*
X167381Y369256D01*
X167383Y369275D01*
X167385Y369316D01*
X167385Y379511D01*
X167777Y379449D01*
X169488Y378893D01*
X170674Y378289D01*
X170767Y378255D01*
X170857Y378213D01*
X170916Y378202D01*
X170973Y378181D01*
X171072Y378172D01*
X171170Y378153D01*
X171230Y378157D01*
X171290Y378151D01*
X171388Y378167D01*
X171487Y378173D01*
X171544Y378192D01*
X171604Y378201D01*
X171695Y378240D01*
X171789Y378271D01*
X171840Y378303D01*
X171896Y378327D01*
X171974Y378388D01*
X172058Y378441D01*
X172099Y378485D01*
X172147Y378522D01*
X172208Y378600D01*
X172276Y378673D01*
X172305Y378726D01*
X172342Y378773D01*
X172382Y378864D01*
X172430Y378951D01*
X172445Y379010D01*
X172469Y379065D01*
X172484Y379163D01*
X172509Y379259D01*
X172515Y379359D01*
X172519Y379379D01*
X172517Y379391D01*
X172519Y379420D01*
X172519Y383326D01*
X172513Y383375D01*
X172515Y383425D01*
X172501Y383497D01*
X172497Y383554D01*
X172486Y383587D01*
X172479Y383641D01*
X172461Y383687D01*
X172451Y383736D01*
X172412Y383816D01*
X172399Y383857D01*
X172386Y383877D01*
X172362Y383937D01*
X172333Y383977D01*
X172311Y384022D01*
X172245Y384100D01*
X172229Y384125D01*
X172219Y384135D01*
X172176Y384194D01*
X172137Y384226D01*
X172105Y384264D01*
X172015Y384327D01*
X172008Y384333D01*
X171997Y384343D01*
X171993Y384346D01*
X171931Y384397D01*
X171886Y384418D01*
X171845Y384447D01*
X171742Y384486D01*
X171643Y384533D01*
X171594Y384542D01*
X171548Y384560D01*
X171438Y384572D01*
X171331Y384593D01*
X171281Y384589D01*
X171232Y384595D01*
X171123Y384580D01*
X171013Y384573D01*
X170966Y384557D01*
X170917Y384551D01*
X170764Y384498D01*
X167222Y383031D01*
X162978Y383031D01*
X159057Y384655D01*
X156055Y387657D01*
X154431Y391578D01*
X154431Y395822D01*
X156055Y399743D01*
X159057Y402745D01*
X161566Y403784D01*
X161687Y403853D01*
X161810Y403918D01*
X161825Y403932D01*
X161842Y403942D01*
X161942Y404038D01*
X162045Y404132D01*
X162056Y404149D01*
X162071Y404163D01*
X162144Y404281D01*
X162220Y404398D01*
X162227Y404417D01*
X162237Y404434D01*
X162278Y404567D01*
X162323Y404698D01*
X162325Y404719D01*
X162331Y404738D01*
X162337Y404876D01*
X162348Y405015D01*
X162345Y405035D01*
X162346Y405056D01*
X162318Y405191D01*
X162294Y405329D01*
X162286Y405347D01*
X162282Y405367D01*
X162220Y405492D01*
X162163Y405619D01*
X162151Y405634D01*
X162142Y405653D01*
X162051Y405759D01*
X161965Y405867D01*
X161949Y405879D01*
X161935Y405895D01*
X161822Y405975D01*
X161711Y406058D01*
X161685Y406071D01*
X161675Y406078D01*
X161656Y406085D01*
X161566Y406129D01*
X157546Y407794D01*
X153794Y411546D01*
X151764Y416447D01*
X151764Y421753D01*
X153043Y424839D01*
X153056Y424887D01*
X153077Y424932D01*
X153098Y425040D01*
X153127Y425146D01*
X153128Y425196D01*
X153137Y425245D01*
X153130Y425354D01*
X153132Y425464D01*
X153120Y425512D01*
X153117Y425562D01*
X153083Y425666D01*
X153058Y425773D01*
X153034Y425817D01*
X153019Y425864D01*
X152960Y425957D01*
X152909Y426054D01*
X152876Y426091D01*
X152849Y426133D01*
X152769Y426208D01*
X152695Y426290D01*
X152653Y426317D01*
X152617Y426351D01*
X152521Y426404D01*
X152429Y426464D01*
X152382Y426481D01*
X152339Y426505D01*
X152233Y426532D01*
X152128Y426568D01*
X152079Y426572D01*
X152031Y426584D01*
X151870Y426594D01*
X25930Y426594D01*
X25880Y426588D01*
X25831Y426590D01*
X25723Y426568D01*
X25614Y426554D01*
X25568Y426536D01*
X25519Y426526D01*
X25421Y426478D01*
X25319Y426437D01*
X25278Y426408D01*
X25234Y426386D01*
X25150Y426315D01*
X25061Y426251D01*
X25030Y426212D01*
X24992Y426180D01*
X24929Y426090D01*
X24858Y426006D01*
X24837Y425961D01*
X24809Y425920D01*
X24770Y425817D01*
X24723Y425718D01*
X24714Y425669D01*
X24696Y425623D01*
X24684Y425513D01*
X24663Y425406D01*
X24666Y425356D01*
X24661Y425307D01*
X24676Y425198D01*
X24683Y425088D01*
X24698Y425041D01*
X24705Y424992D01*
X24757Y424839D01*
X26036Y421753D01*
X26036Y416447D01*
X24006Y411546D01*
X20254Y407794D01*
X17879Y406811D01*
X17818Y406776D01*
X17753Y406750D01*
X17681Y406698D01*
X17602Y406653D01*
X17552Y406605D01*
X17496Y406564D01*
X17439Y406494D01*
X17374Y406432D01*
X17338Y406372D01*
X17293Y406319D01*
X17255Y406237D01*
X17208Y406161D01*
X17187Y406094D01*
X17158Y406031D01*
X17141Y405943D01*
X17114Y405857D01*
X17111Y405787D01*
X17098Y405718D01*
X17103Y405629D01*
X17099Y405539D01*
X17113Y405471D01*
X17117Y405401D01*
X17145Y405316D01*
X17163Y405228D01*
X17194Y405165D01*
X17216Y405099D01*
X17264Y405023D01*
X17303Y404942D01*
X17348Y404889D01*
X17386Y404830D01*
X17451Y404768D01*
X17509Y404700D01*
X17566Y404660D01*
X17617Y404612D01*
X17696Y404569D01*
X17769Y404517D01*
X17835Y404492D01*
X17896Y404458D01*
X17983Y404436D01*
X18067Y404404D01*
X18136Y404396D01*
X18204Y404379D01*
X18364Y404369D01*
X22327Y404369D01*
X23369Y403327D01*
X23369Y384073D01*
X22327Y383031D01*
X6350Y383031D01*
X6232Y383016D01*
X6113Y383009D01*
X6075Y382996D01*
X6034Y382991D01*
X5924Y382948D01*
X5811Y382911D01*
X5776Y382889D01*
X5739Y382874D01*
X5643Y382805D01*
X5542Y382741D01*
X5514Y382711D01*
X5481Y382688D01*
X5405Y382596D01*
X5324Y382509D01*
X5304Y382474D01*
X5279Y382443D01*
X5228Y382335D01*
X5170Y382231D01*
X5160Y382191D01*
X5143Y382155D01*
X5121Y382038D01*
X5091Y381923D01*
X5087Y381863D01*
X5083Y381843D01*
X5085Y381822D01*
X5081Y381762D01*
X5081Y378591D01*
X5087Y378542D01*
X5085Y378492D01*
X5107Y378385D01*
X5121Y378276D01*
X5139Y378229D01*
X5149Y378181D01*
X5197Y378082D01*
X5238Y377980D01*
X5267Y377940D01*
X5289Y377895D01*
X5360Y377812D01*
X5424Y377723D01*
X5463Y377691D01*
X5495Y377653D01*
X5585Y377590D01*
X5669Y377520D01*
X5714Y377499D01*
X5755Y377470D01*
X5858Y377431D01*
X5957Y377384D01*
X6006Y377375D01*
X6052Y377357D01*
X6162Y377345D01*
X6269Y377325D01*
X6319Y377328D01*
X6368Y377322D01*
X6477Y377338D01*
X6587Y377344D01*
X6634Y377360D01*
X6683Y377367D01*
X6836Y377419D01*
X10578Y378969D01*
X14822Y378969D01*
X18743Y377345D01*
X21745Y374343D01*
X23369Y370422D01*
X23369Y366178D01*
X21745Y362257D01*
X18743Y359255D01*
X14822Y357631D01*
X10578Y357631D01*
X6836Y359181D01*
X6788Y359194D01*
X6743Y359216D01*
X6635Y359236D01*
X6529Y359265D01*
X6479Y359266D01*
X6430Y359275D01*
X6321Y359269D01*
X6211Y359270D01*
X6163Y359259D01*
X6113Y359256D01*
X6009Y359222D01*
X5902Y359196D01*
X5858Y359173D01*
X5811Y359158D01*
X5718Y359099D01*
X5621Y359047D01*
X5584Y359014D01*
X5542Y358987D01*
X5467Y358907D01*
X5385Y358834D01*
X5358Y358792D01*
X5324Y358756D01*
X5271Y358660D01*
X5211Y358568D01*
X5194Y358521D01*
X5170Y358477D01*
X5143Y358371D01*
X5107Y358267D01*
X5103Y358217D01*
X5091Y358169D01*
X5081Y358009D01*
X5081Y353191D01*
X5087Y353142D01*
X5085Y353092D01*
X5107Y352985D01*
X5121Y352876D01*
X5139Y352829D01*
X5149Y352781D01*
X5197Y352682D01*
X5238Y352580D01*
X5267Y352540D01*
X5289Y352495D01*
X5360Y352412D01*
X5424Y352323D01*
X5463Y352291D01*
X5495Y352253D01*
X5585Y352190D01*
X5669Y352120D01*
X5714Y352099D01*
X5755Y352070D01*
X5858Y352031D01*
X5957Y351984D01*
X6006Y351975D01*
X6052Y351957D01*
X6162Y351945D01*
X6269Y351925D01*
X6319Y351928D01*
X6368Y351922D01*
X6477Y351938D01*
X6587Y351944D01*
X6634Y351960D01*
X6683Y351967D01*
X6836Y352019D01*
X10578Y353569D01*
X14822Y353569D01*
X18743Y351945D01*
X21745Y348943D01*
X23369Y345022D01*
X23369Y340778D01*
X21745Y336857D01*
X18743Y333855D01*
X14822Y332231D01*
X10578Y332231D01*
X6836Y333781D01*
X6788Y333794D01*
X6743Y333816D01*
X6635Y333836D01*
X6529Y333865D01*
X6479Y333866D01*
X6430Y333875D01*
X6321Y333869D01*
X6211Y333870D01*
X6163Y333859D01*
X6113Y333856D01*
X6009Y333822D01*
X5902Y333796D01*
X5858Y333773D01*
X5811Y333758D01*
X5718Y333699D01*
X5621Y333647D01*
X5584Y333614D01*
X5542Y333587D01*
X5467Y333507D01*
X5385Y333434D01*
X5358Y333392D01*
X5324Y333356D01*
X5271Y333260D01*
X5211Y333168D01*
X5194Y333121D01*
X5170Y333077D01*
X5143Y332971D01*
X5107Y332867D01*
X5103Y332817D01*
X5091Y332769D01*
X5081Y332609D01*
X5081Y328518D01*
X5093Y328419D01*
X5096Y328320D01*
X5113Y328262D01*
X5121Y328202D01*
X5157Y328110D01*
X5185Y328015D01*
X5215Y327963D01*
X5238Y327907D01*
X5296Y327826D01*
X5347Y327741D01*
X5389Y327698D01*
X5424Y327649D01*
X5501Y327586D01*
X5571Y327516D01*
X5623Y327485D01*
X5669Y327447D01*
X5759Y327404D01*
X5845Y327354D01*
X5903Y327337D01*
X5957Y327311D01*
X6055Y327292D01*
X6150Y327265D01*
X6210Y327263D01*
X6269Y327251D01*
X6369Y327257D01*
X6468Y327254D01*
X6527Y327267D01*
X6587Y327271D01*
X6681Y327302D01*
X6778Y327323D01*
X6870Y327363D01*
X6889Y327369D01*
X6900Y327376D01*
X6926Y327387D01*
X8312Y328093D01*
X10023Y328649D01*
X10415Y328711D01*
X10415Y318516D01*
X10430Y318398D01*
X10437Y318279D01*
X10449Y318241D01*
X10455Y318201D01*
X10498Y318090D01*
X10535Y317977D01*
X10557Y317943D01*
X10572Y317905D01*
X10641Y317809D01*
X10705Y317708D01*
X10735Y317680D01*
X10758Y317648D01*
X10850Y317572D01*
X10930Y317497D01*
X10876Y317463D01*
X10848Y317433D01*
X10815Y317409D01*
X10739Y317318D01*
X10658Y317231D01*
X10638Y317196D01*
X10613Y317164D01*
X10562Y317057D01*
X10504Y316952D01*
X10494Y316913D01*
X10477Y316877D01*
X10455Y316760D01*
X10425Y316644D01*
X10421Y316584D01*
X10417Y316564D01*
X10419Y316544D01*
X10415Y316484D01*
X10415Y306289D01*
X10023Y306351D01*
X8312Y306907D01*
X6926Y307613D01*
X6833Y307647D01*
X6743Y307689D01*
X6684Y307700D01*
X6627Y307721D01*
X6528Y307730D01*
X6430Y307749D01*
X6370Y307745D01*
X6310Y307751D01*
X6212Y307735D01*
X6113Y307729D01*
X6056Y307710D01*
X5996Y307701D01*
X5905Y307661D01*
X5811Y307631D01*
X5760Y307599D01*
X5704Y307575D01*
X5626Y307514D01*
X5542Y307461D01*
X5500Y307417D01*
X5453Y307380D01*
X5392Y307302D01*
X5324Y307229D01*
X5295Y307176D01*
X5258Y307129D01*
X5218Y307038D01*
X5170Y306951D01*
X5155Y306892D01*
X5131Y306837D01*
X5116Y306739D01*
X5091Y306643D01*
X5085Y306543D01*
X5081Y306523D01*
X5083Y306511D01*
X5081Y306482D01*
X5081Y302391D01*
X5087Y302342D01*
X5085Y302292D01*
X5107Y302185D01*
X5121Y302076D01*
X5139Y302029D01*
X5149Y301981D01*
X5197Y301882D01*
X5238Y301780D01*
X5267Y301740D01*
X5289Y301695D01*
X5360Y301612D01*
X5424Y301523D01*
X5463Y301491D01*
X5495Y301453D01*
X5585Y301390D01*
X5669Y301320D01*
X5714Y301299D01*
X5755Y301270D01*
X5858Y301231D01*
X5957Y301184D01*
X6006Y301175D01*
X6052Y301157D01*
X6162Y301145D01*
X6269Y301125D01*
X6319Y301128D01*
X6368Y301122D01*
X6477Y301138D01*
X6587Y301144D01*
X6634Y301160D01*
X6683Y301167D01*
X6836Y301219D01*
X10578Y302769D01*
X14822Y302769D01*
X18743Y301145D01*
X21745Y298143D01*
X23369Y294222D01*
X23369Y289978D01*
X21745Y286057D01*
X18743Y283055D01*
X14822Y281431D01*
X10578Y281431D01*
X6836Y282981D01*
X6788Y282994D01*
X6743Y283016D01*
X6635Y283036D01*
X6529Y283065D01*
X6479Y283066D01*
X6430Y283075D01*
X6321Y283069D01*
X6211Y283070D01*
X6163Y283059D01*
X6113Y283056D01*
X6009Y283022D01*
X5902Y282996D01*
X5858Y282973D01*
X5811Y282958D01*
X5718Y282899D01*
X5621Y282847D01*
X5584Y282814D01*
X5542Y282787D01*
X5467Y282707D01*
X5385Y282634D01*
X5358Y282592D01*
X5324Y282556D01*
X5271Y282460D01*
X5211Y282368D01*
X5194Y282321D01*
X5170Y282277D01*
X5143Y282171D01*
X5107Y282067D01*
X5103Y282017D01*
X5091Y281969D01*
X5084Y281862D01*
X5083Y281858D01*
X5084Y281853D01*
X5081Y281809D01*
X5081Y276991D01*
X5087Y276942D01*
X5085Y276892D01*
X5107Y276785D01*
X5121Y276676D01*
X5139Y276629D01*
X5149Y276581D01*
X5197Y276482D01*
X5238Y276380D01*
X5267Y276340D01*
X5289Y276295D01*
X5360Y276212D01*
X5424Y276123D01*
X5463Y276091D01*
X5495Y276053D01*
X5585Y275990D01*
X5669Y275920D01*
X5714Y275899D01*
X5755Y275870D01*
X5858Y275831D01*
X5957Y275784D01*
X6006Y275775D01*
X6052Y275757D01*
X6162Y275745D01*
X6269Y275725D01*
X6319Y275728D01*
X6368Y275722D01*
X6477Y275738D01*
X6587Y275744D01*
X6634Y275760D01*
X6683Y275767D01*
X6836Y275819D01*
X10578Y277369D01*
X14822Y277369D01*
X18743Y275745D01*
X21745Y272743D01*
X23369Y268822D01*
X23369Y264578D01*
X21745Y260657D01*
X18743Y257655D01*
X14822Y256031D01*
X10578Y256031D01*
X6836Y257581D01*
X6788Y257594D01*
X6743Y257616D01*
X6635Y257636D01*
X6529Y257665D01*
X6479Y257666D01*
X6430Y257675D01*
X6321Y257669D01*
X6211Y257670D01*
X6163Y257659D01*
X6113Y257656D01*
X6009Y257622D01*
X5902Y257596D01*
X5858Y257573D01*
X5811Y257558D01*
X5718Y257499D01*
X5621Y257447D01*
X5584Y257414D01*
X5542Y257387D01*
X5467Y257307D01*
X5385Y257234D01*
X5358Y257192D01*
X5324Y257156D01*
X5271Y257060D01*
X5211Y256968D01*
X5194Y256921D01*
X5170Y256877D01*
X5151Y256802D01*
X5143Y256785D01*
X5137Y256754D01*
X5107Y256667D01*
X5103Y256617D01*
X5091Y256569D01*
X5086Y256485D01*
X5083Y256473D01*
X5084Y256461D01*
X5081Y256409D01*
X5081Y251591D01*
X5087Y251542D01*
X5085Y251492D01*
X5107Y251385D01*
X5121Y251276D01*
X5139Y251229D01*
X5149Y251181D01*
X5197Y251082D01*
X5238Y250980D01*
X5267Y250940D01*
X5289Y250895D01*
X5360Y250812D01*
X5424Y250723D01*
X5463Y250691D01*
X5495Y250653D01*
X5585Y250590D01*
X5669Y250520D01*
X5714Y250499D01*
X5755Y250470D01*
X5858Y250431D01*
X5957Y250384D01*
X6006Y250375D01*
X6052Y250357D01*
X6162Y250345D01*
X6269Y250325D01*
X6319Y250328D01*
X6368Y250322D01*
X6477Y250338D01*
X6587Y250344D01*
X6634Y250360D01*
X6683Y250367D01*
X6836Y250419D01*
X10578Y251969D01*
X14822Y251969D01*
X18743Y250345D01*
X21745Y247343D01*
X23369Y243422D01*
X23369Y239178D01*
X21745Y235257D01*
X18743Y232255D01*
X14822Y230631D01*
X10578Y230631D01*
X6836Y232181D01*
X6828Y232183D01*
X6822Y232187D01*
X6782Y232197D01*
X6743Y232216D01*
X6635Y232236D01*
X6529Y232265D01*
X6517Y232265D01*
X6514Y232266D01*
X6460Y232270D01*
X6430Y232275D01*
X6400Y232274D01*
X6354Y232276D01*
X6350Y232276D01*
X6291Y232269D01*
X6211Y232270D01*
X6163Y232259D01*
X6113Y232256D01*
X6067Y232241D01*
X6034Y232237D01*
X5979Y232215D01*
X5902Y232196D01*
X5858Y232173D01*
X5811Y232158D01*
X5770Y232132D01*
X5739Y232120D01*
X5690Y232084D01*
X5621Y232047D01*
X5584Y232014D01*
X5542Y231987D01*
X5510Y231953D01*
X5481Y231933D01*
X5442Y231885D01*
X5385Y231834D01*
X5358Y231792D01*
X5324Y231756D01*
X5302Y231716D01*
X5279Y231688D01*
X5251Y231630D01*
X5211Y231568D01*
X5194Y231521D01*
X5170Y231477D01*
X5159Y231435D01*
X5143Y231400D01*
X5131Y231335D01*
X5107Y231267D01*
X5103Y231217D01*
X5091Y231169D01*
X5087Y231107D01*
X5083Y231088D01*
X5085Y231068D01*
X5081Y231009D01*
X5081Y226191D01*
X5087Y226142D01*
X5085Y226092D01*
X5107Y225985D01*
X5121Y225876D01*
X5139Y225829D01*
X5149Y225781D01*
X5197Y225682D01*
X5238Y225580D01*
X5267Y225540D01*
X5289Y225495D01*
X5360Y225412D01*
X5424Y225323D01*
X5463Y225291D01*
X5495Y225253D01*
X5585Y225190D01*
X5669Y225120D01*
X5714Y225099D01*
X5755Y225070D01*
X5858Y225031D01*
X5957Y224984D01*
X6006Y224975D01*
X6052Y224957D01*
X6162Y224945D01*
X6269Y224925D01*
X6319Y224928D01*
X6368Y224922D01*
X6477Y224938D01*
X6587Y224944D01*
X6634Y224960D01*
X6683Y224967D01*
X6836Y225019D01*
X10578Y226569D01*
X14822Y226569D01*
X18743Y224945D01*
X21745Y221943D01*
X23369Y218022D01*
X23369Y213778D01*
X21745Y209857D01*
X18743Y206855D01*
X14822Y205231D01*
X10578Y205231D01*
X6836Y206781D01*
X6788Y206794D01*
X6743Y206816D01*
X6635Y206836D01*
X6529Y206865D01*
X6479Y206866D01*
X6430Y206875D01*
X6321Y206869D01*
X6211Y206870D01*
X6163Y206859D01*
X6113Y206856D01*
X6009Y206822D01*
X5902Y206796D01*
X5858Y206773D01*
X5811Y206758D01*
X5718Y206699D01*
X5621Y206647D01*
X5584Y206614D01*
X5542Y206587D01*
X5467Y206507D01*
X5385Y206434D01*
X5358Y206392D01*
X5324Y206356D01*
X5271Y206260D01*
X5211Y206168D01*
X5194Y206121D01*
X5170Y206077D01*
X5143Y205971D01*
X5107Y205867D01*
X5103Y205817D01*
X5091Y205769D01*
X5081Y205609D01*
X5081Y200791D01*
X5087Y200742D01*
X5085Y200692D01*
X5107Y200585D01*
X5121Y200476D01*
X5139Y200429D01*
X5149Y200381D01*
X5197Y200282D01*
X5238Y200180D01*
X5267Y200140D01*
X5289Y200095D01*
X5360Y200012D01*
X5424Y199923D01*
X5463Y199891D01*
X5495Y199853D01*
X5585Y199790D01*
X5669Y199720D01*
X5714Y199699D01*
X5755Y199670D01*
X5858Y199631D01*
X5957Y199584D01*
X6006Y199575D01*
X6052Y199557D01*
X6162Y199545D01*
X6269Y199525D01*
X6319Y199528D01*
X6368Y199522D01*
X6477Y199538D01*
X6587Y199544D01*
X6634Y199560D01*
X6683Y199567D01*
X6836Y199619D01*
X10578Y201169D01*
X14822Y201169D01*
X18743Y199545D01*
X21745Y196543D01*
X23369Y192622D01*
X23369Y188378D01*
X21745Y184457D01*
X18743Y181455D01*
X14822Y179831D01*
X10578Y179831D01*
X6836Y181381D01*
X6788Y181394D01*
X6743Y181416D01*
X6635Y181436D01*
X6529Y181465D01*
X6479Y181466D01*
X6430Y181475D01*
X6321Y181469D01*
X6211Y181470D01*
X6163Y181459D01*
X6113Y181456D01*
X6009Y181422D01*
X5902Y181396D01*
X5858Y181373D01*
X5811Y181358D01*
X5718Y181299D01*
X5621Y181247D01*
X5584Y181214D01*
X5542Y181187D01*
X5467Y181107D01*
X5385Y181034D01*
X5358Y180992D01*
X5324Y180956D01*
X5271Y180860D01*
X5211Y180768D01*
X5194Y180721D01*
X5170Y180677D01*
X5143Y180571D01*
X5107Y180467D01*
X5103Y180417D01*
X5091Y180369D01*
X5081Y180209D01*
X5081Y175391D01*
X5087Y175342D01*
X5085Y175292D01*
X5107Y175185D01*
X5121Y175076D01*
X5139Y175030D01*
X5149Y174981D01*
X5197Y174882D01*
X5238Y174780D01*
X5267Y174740D01*
X5289Y174695D01*
X5360Y174612D01*
X5424Y174523D01*
X5463Y174491D01*
X5495Y174453D01*
X5585Y174390D01*
X5669Y174320D01*
X5714Y174299D01*
X5755Y174270D01*
X5858Y174231D01*
X5957Y174184D01*
X6006Y174175D01*
X6052Y174157D01*
X6162Y174145D01*
X6269Y174125D01*
X6319Y174128D01*
X6368Y174122D01*
X6477Y174138D01*
X6587Y174144D01*
X6634Y174160D01*
X6683Y174167D01*
X6836Y174219D01*
X10578Y175769D01*
X14822Y175769D01*
X18743Y174145D01*
X21745Y171143D01*
X23369Y167222D01*
X23369Y162978D01*
X21745Y159057D01*
X18743Y156055D01*
X14822Y154431D01*
X10578Y154431D01*
X6836Y155981D01*
X6788Y155994D01*
X6743Y156016D01*
X6635Y156036D01*
X6529Y156065D01*
X6479Y156066D01*
X6430Y156075D01*
X6321Y156069D01*
X6211Y156070D01*
X6163Y156059D01*
X6113Y156056D01*
X6009Y156022D01*
X5902Y155996D01*
X5858Y155973D01*
X5811Y155958D01*
X5718Y155899D01*
X5621Y155847D01*
X5584Y155814D01*
X5542Y155787D01*
X5467Y155707D01*
X5385Y155633D01*
X5358Y155592D01*
X5324Y155556D01*
X5271Y155460D01*
X5211Y155368D01*
X5194Y155321D01*
X5170Y155277D01*
X5143Y155171D01*
X5107Y155067D01*
X5103Y155017D01*
X5091Y154969D01*
X5081Y154809D01*
X5081Y149991D01*
X5087Y149942D01*
X5085Y149892D01*
X5107Y149785D01*
X5121Y149676D01*
X5139Y149630D01*
X5149Y149581D01*
X5197Y149482D01*
X5238Y149380D01*
X5267Y149340D01*
X5289Y149295D01*
X5360Y149212D01*
X5424Y149123D01*
X5463Y149091D01*
X5495Y149053D01*
X5585Y148990D01*
X5669Y148920D01*
X5714Y148899D01*
X5755Y148870D01*
X5858Y148831D01*
X5957Y148784D01*
X6006Y148775D01*
X6052Y148757D01*
X6162Y148745D01*
X6269Y148725D01*
X6319Y148728D01*
X6368Y148722D01*
X6477Y148738D01*
X6587Y148744D01*
X6634Y148760D01*
X6683Y148767D01*
X6836Y148819D01*
X10578Y150369D01*
X14822Y150369D01*
X18743Y148745D01*
X21745Y145743D01*
X23369Y141822D01*
X23369Y137578D01*
X21745Y133657D01*
X18743Y130655D01*
X14822Y129031D01*
X10578Y129031D01*
X6836Y130581D01*
X6788Y130594D01*
X6743Y130616D01*
X6635Y130636D01*
X6529Y130665D01*
X6479Y130666D01*
X6430Y130675D01*
X6321Y130669D01*
X6211Y130670D01*
X6163Y130659D01*
X6113Y130656D01*
X6009Y130622D01*
X5902Y130596D01*
X5858Y130573D01*
X5811Y130558D01*
X5718Y130499D01*
X5621Y130447D01*
X5584Y130414D01*
X5542Y130387D01*
X5467Y130307D01*
X5385Y130233D01*
X5358Y130192D01*
X5324Y130156D01*
X5271Y130060D01*
X5211Y129968D01*
X5194Y129921D01*
X5170Y129877D01*
X5143Y129771D01*
X5107Y129667D01*
X5103Y129617D01*
X5091Y129569D01*
X5081Y129409D01*
X5081Y124591D01*
X5087Y124542D01*
X5085Y124492D01*
X5107Y124385D01*
X5121Y124276D01*
X5139Y124230D01*
X5149Y124181D01*
X5197Y124082D01*
X5238Y123980D01*
X5267Y123940D01*
X5289Y123895D01*
X5360Y123812D01*
X5424Y123723D01*
X5463Y123691D01*
X5495Y123653D01*
X5585Y123590D01*
X5669Y123520D01*
X5714Y123499D01*
X5755Y123470D01*
X5858Y123431D01*
X5957Y123384D01*
X6006Y123375D01*
X6052Y123357D01*
X6162Y123345D01*
X6269Y123325D01*
X6319Y123328D01*
X6368Y123322D01*
X6477Y123338D01*
X6587Y123344D01*
X6634Y123360D01*
X6683Y123367D01*
X6836Y123419D01*
X10578Y124969D01*
X14822Y124969D01*
X18743Y123345D01*
X21745Y120343D01*
X23369Y116422D01*
X23369Y112178D01*
X21745Y108257D01*
X18743Y105255D01*
X14822Y103631D01*
X10578Y103631D01*
X6836Y105181D01*
X6788Y105194D01*
X6743Y105216D01*
X6635Y105236D01*
X6529Y105265D01*
X6479Y105266D01*
X6430Y105275D01*
X6321Y105269D01*
X6211Y105270D01*
X6163Y105259D01*
X6113Y105256D01*
X6009Y105222D01*
X5902Y105196D01*
X5858Y105173D01*
X5811Y105158D01*
X5718Y105099D01*
X5621Y105047D01*
X5584Y105014D01*
X5542Y104987D01*
X5467Y104907D01*
X5385Y104833D01*
X5358Y104792D01*
X5324Y104756D01*
X5271Y104660D01*
X5211Y104568D01*
X5194Y104521D01*
X5170Y104477D01*
X5143Y104371D01*
X5107Y104267D01*
X5103Y104217D01*
X5091Y104169D01*
X5081Y104009D01*
X5081Y99191D01*
X5087Y99142D01*
X5085Y99092D01*
X5107Y98985D01*
X5121Y98876D01*
X5139Y98830D01*
X5149Y98781D01*
X5197Y98682D01*
X5238Y98580D01*
X5267Y98540D01*
X5289Y98495D01*
X5360Y98412D01*
X5424Y98323D01*
X5463Y98291D01*
X5495Y98253D01*
X5585Y98190D01*
X5669Y98120D01*
X5714Y98099D01*
X5755Y98070D01*
X5858Y98031D01*
X5957Y97984D01*
X6006Y97975D01*
X6052Y97957D01*
X6162Y97945D01*
X6269Y97925D01*
X6319Y97928D01*
X6368Y97922D01*
X6477Y97938D01*
X6587Y97944D01*
X6634Y97960D01*
X6683Y97967D01*
X6836Y98019D01*
X10578Y99569D01*
X14822Y99569D01*
X18743Y97945D01*
X21745Y94943D01*
X23369Y91022D01*
X23369Y86778D01*
X21745Y82857D01*
X18743Y79855D01*
X14822Y78231D01*
X10578Y78231D01*
X6836Y79781D01*
X6788Y79794D01*
X6743Y79816D01*
X6635Y79836D01*
X6529Y79865D01*
X6479Y79866D01*
X6430Y79875D01*
X6321Y79869D01*
X6211Y79870D01*
X6163Y79859D01*
X6113Y79856D01*
X6009Y79822D01*
X5902Y79796D01*
X5858Y79773D01*
X5811Y79758D01*
X5718Y79699D01*
X5621Y79647D01*
X5584Y79614D01*
X5542Y79587D01*
X5467Y79507D01*
X5385Y79433D01*
X5358Y79392D01*
X5324Y79356D01*
X5271Y79260D01*
X5211Y79168D01*
X5194Y79121D01*
X5170Y79077D01*
X5143Y78971D01*
X5107Y78867D01*
X5103Y78817D01*
X5091Y78769D01*
X5081Y78609D01*
X5081Y73791D01*
X5087Y73742D01*
X5085Y73692D01*
X5107Y73585D01*
X5121Y73476D01*
X5139Y73430D01*
X5149Y73381D01*
X5197Y73282D01*
X5238Y73180D01*
X5267Y73140D01*
X5289Y73095D01*
X5360Y73012D01*
X5424Y72923D01*
X5463Y72891D01*
X5495Y72853D01*
X5585Y72790D01*
X5669Y72720D01*
X5714Y72699D01*
X5755Y72670D01*
X5858Y72631D01*
X5957Y72584D01*
X6006Y72575D01*
X6052Y72557D01*
X6162Y72545D01*
X6269Y72525D01*
X6319Y72528D01*
X6368Y72522D01*
X6477Y72538D01*
X6587Y72544D01*
X6634Y72560D01*
X6683Y72567D01*
X6836Y72619D01*
X10578Y74169D01*
X14822Y74169D01*
X18743Y72545D01*
X21745Y69543D01*
X23369Y65622D01*
X23369Y61378D01*
X21745Y57457D01*
X18743Y54455D01*
X14822Y52831D01*
X10578Y52831D01*
X6836Y54381D01*
X6788Y54394D01*
X6743Y54416D01*
X6635Y54436D01*
X6529Y54465D01*
X6479Y54466D01*
X6430Y54475D01*
X6321Y54469D01*
X6211Y54470D01*
X6163Y54459D01*
X6113Y54456D01*
X6009Y54422D01*
X5902Y54396D01*
X5858Y54373D01*
X5811Y54358D01*
X5718Y54299D01*
X5621Y54247D01*
X5584Y54214D01*
X5542Y54187D01*
X5467Y54107D01*
X5385Y54033D01*
X5358Y53992D01*
X5324Y53956D01*
X5271Y53860D01*
X5211Y53768D01*
X5194Y53721D01*
X5170Y53677D01*
X5143Y53571D01*
X5107Y53467D01*
X5103Y53417D01*
X5091Y53369D01*
X5081Y53209D01*
X5081Y48391D01*
X5087Y48342D01*
X5085Y48292D01*
X5107Y48185D01*
X5121Y48076D01*
X5139Y48030D01*
X5149Y47981D01*
X5197Y47882D01*
X5238Y47780D01*
X5267Y47740D01*
X5289Y47695D01*
X5360Y47612D01*
X5424Y47523D01*
X5463Y47491D01*
X5495Y47453D01*
X5585Y47390D01*
X5669Y47320D01*
X5714Y47299D01*
X5755Y47270D01*
X5858Y47231D01*
X5957Y47184D01*
X6006Y47175D01*
X6052Y47157D01*
X6162Y47145D01*
X6269Y47125D01*
X6319Y47128D01*
X6368Y47122D01*
X6477Y47138D01*
X6587Y47144D01*
X6634Y47160D01*
X6683Y47167D01*
X6836Y47219D01*
X10578Y48769D01*
X14822Y48769D01*
X18743Y47145D01*
X21745Y44143D01*
X23369Y40222D01*
X23369Y35978D01*
X21745Y32057D01*
X18743Y29055D01*
X16234Y28016D01*
X16113Y27947D01*
X15990Y27882D01*
X15975Y27868D01*
X15958Y27858D01*
X15858Y27762D01*
X15755Y27668D01*
X15744Y27651D01*
X15729Y27637D01*
X15656Y27519D01*
X15580Y27402D01*
X15573Y27383D01*
X15563Y27366D01*
X15522Y27233D01*
X15477Y27102D01*
X15475Y27081D01*
X15469Y27062D01*
X15463Y26924D01*
X15452Y26785D01*
X15455Y26765D01*
X15454Y26744D01*
X15482Y26609D01*
X15506Y26471D01*
X15514Y26453D01*
X15518Y26433D01*
X15580Y26308D01*
X15637Y26181D01*
X15649Y26166D01*
X15658Y26147D01*
X15749Y26041D01*
X15835Y25933D01*
X15851Y25921D01*
X15864Y25905D01*
X15978Y25825D01*
X16089Y25742D01*
X16114Y25729D01*
X16125Y25722D01*
X16144Y25715D01*
X16234Y25671D01*
X20254Y24006D01*
X24006Y20254D01*
X26036Y15353D01*
X26036Y10047D01*
X24705Y6836D01*
X24692Y6788D01*
X24671Y6743D01*
X24651Y6635D01*
X24621Y6529D01*
X24621Y6479D01*
X24611Y6430D01*
X24618Y6321D01*
X24616Y6211D01*
X24628Y6163D01*
X24631Y6113D01*
X24665Y6009D01*
X24691Y5902D01*
X24714Y5858D01*
X24729Y5811D01*
X24788Y5718D01*
X24839Y5621D01*
X24873Y5584D01*
X24899Y5542D01*
X24979Y5467D01*
X25053Y5385D01*
X25095Y5358D01*
X25131Y5324D01*
X25227Y5271D01*
X25319Y5211D01*
X25366Y5194D01*
X25409Y5170D01*
X25516Y5143D01*
X25620Y5107D01*
X25669Y5103D01*
X25717Y5091D01*
X25878Y5081D01*
X151922Y5081D01*
X151971Y5087D01*
G37*
%LPC*%
G36*
X135064Y220979D02*
X135064Y220979D01*
X130956Y222681D01*
X127812Y225825D01*
X126110Y229933D01*
X126110Y234379D01*
X127812Y238487D01*
X130956Y241631D01*
X134991Y243302D01*
X135111Y243371D01*
X135234Y243436D01*
X135249Y243450D01*
X135267Y243460D01*
X135367Y243557D01*
X135470Y243650D01*
X135481Y243667D01*
X135495Y243681D01*
X135568Y243799D01*
X135644Y243916D01*
X135651Y243935D01*
X135661Y243952D01*
X135702Y244085D01*
X135747Y244217D01*
X135749Y244237D01*
X135755Y244256D01*
X135762Y244395D01*
X135773Y244534D01*
X135769Y244554D01*
X135770Y244574D01*
X135742Y244710D01*
X135718Y244847D01*
X135710Y244865D01*
X135706Y244885D01*
X135645Y245011D01*
X135588Y245137D01*
X135575Y245153D01*
X135566Y245171D01*
X135475Y245277D01*
X135389Y245385D01*
X135373Y245398D01*
X135360Y245413D01*
X135246Y245493D01*
X135135Y245577D01*
X135110Y245589D01*
X135100Y245596D01*
X135081Y245603D01*
X134991Y245648D01*
X130956Y247319D01*
X127812Y250463D01*
X126110Y254571D01*
X126110Y259017D01*
X127812Y263125D01*
X130956Y266269D01*
X135064Y267971D01*
X139510Y267971D01*
X143618Y266269D01*
X146762Y263125D01*
X148464Y259017D01*
X148464Y254571D01*
X146762Y250463D01*
X143618Y247319D01*
X139583Y245648D01*
X139463Y245579D01*
X139340Y245514D01*
X139325Y245500D01*
X139307Y245490D01*
X139207Y245393D01*
X139104Y245300D01*
X139093Y245283D01*
X139079Y245269D01*
X139006Y245150D01*
X138930Y245034D01*
X138923Y245015D01*
X138913Y244998D01*
X138872Y244865D01*
X138827Y244733D01*
X138825Y244713D01*
X138819Y244694D01*
X138812Y244555D01*
X138801Y244416D01*
X138805Y244396D01*
X138804Y244376D01*
X138832Y244240D01*
X138856Y244103D01*
X138864Y244084D01*
X138868Y244065D01*
X138929Y243939D01*
X138986Y243813D01*
X138999Y243797D01*
X139008Y243779D01*
X139098Y243673D01*
X139185Y243565D01*
X139201Y243552D01*
X139214Y243537D01*
X139328Y243457D01*
X139439Y243373D01*
X139464Y243361D01*
X139474Y243354D01*
X139493Y243347D01*
X139583Y243302D01*
X143618Y241631D01*
X146762Y238487D01*
X148464Y234379D01*
X148464Y229933D01*
X146762Y225825D01*
X143618Y222681D01*
X139510Y220979D01*
X135064Y220979D01*
G37*
%LPD*%
%LPC*%
G36*
X72262Y232155D02*
X72262Y232155D01*
X72262Y233426D01*
X72247Y233544D01*
X72240Y233663D01*
X72227Y233701D01*
X72222Y233741D01*
X72178Y233852D01*
X72142Y233965D01*
X72120Y234000D01*
X72105Y234037D01*
X72035Y234133D01*
X71972Y234234D01*
X71942Y234262D01*
X71918Y234295D01*
X71827Y234370D01*
X71740Y234452D01*
X71705Y234472D01*
X71673Y234497D01*
X71566Y234548D01*
X71461Y234606D01*
X71422Y234616D01*
X71386Y234633D01*
X71269Y234655D01*
X71154Y234685D01*
X71093Y234689D01*
X71073Y234693D01*
X71053Y234691D01*
X70993Y234695D01*
X60578Y234695D01*
X60618Y234952D01*
X61199Y236739D01*
X62052Y238413D01*
X63157Y239934D01*
X64485Y241262D01*
X66006Y242367D01*
X67680Y243220D01*
X68974Y243640D01*
X69001Y243653D01*
X69030Y243660D01*
X69145Y243721D01*
X69261Y243776D01*
X69285Y243795D01*
X69311Y243809D01*
X69407Y243896D01*
X69507Y243978D01*
X69524Y244003D01*
X69546Y244023D01*
X69618Y244131D01*
X69694Y244236D01*
X69705Y244263D01*
X69721Y244288D01*
X69763Y244411D01*
X69811Y244531D01*
X69814Y244561D01*
X69824Y244589D01*
X69834Y244719D01*
X69851Y244847D01*
X69847Y244876D01*
X69849Y244906D01*
X69827Y245034D01*
X69811Y245162D01*
X69800Y245190D01*
X69795Y245220D01*
X69742Y245338D01*
X69694Y245458D01*
X69677Y245482D01*
X69664Y245510D01*
X69584Y245611D01*
X69508Y245716D01*
X69485Y245735D01*
X69466Y245758D01*
X69362Y245836D01*
X69263Y245918D01*
X69236Y245931D01*
X69212Y245949D01*
X69067Y246020D01*
X65932Y247319D01*
X62788Y250463D01*
X61086Y254571D01*
X61086Y259017D01*
X62788Y263125D01*
X65932Y266269D01*
X70040Y267971D01*
X74486Y267971D01*
X78594Y266269D01*
X81738Y263125D01*
X83440Y259017D01*
X83440Y254571D01*
X81738Y250463D01*
X78594Y247319D01*
X75459Y246020D01*
X75433Y246005D01*
X75404Y245996D01*
X75295Y245927D01*
X75183Y245863D01*
X75161Y245842D01*
X75136Y245826D01*
X75047Y245731D01*
X74954Y245641D01*
X74939Y245616D01*
X74918Y245594D01*
X74856Y245480D01*
X74788Y245370D01*
X74779Y245342D01*
X74765Y245315D01*
X74732Y245190D01*
X74694Y245066D01*
X74693Y245036D01*
X74685Y245007D01*
X74685Y244878D01*
X74679Y244749D01*
X74685Y244719D01*
X74685Y244689D01*
X74717Y244564D01*
X74743Y244437D01*
X74757Y244410D01*
X74764Y244381D01*
X74826Y244268D01*
X74883Y244151D01*
X74903Y244129D01*
X74917Y244103D01*
X75005Y244008D01*
X75090Y243909D01*
X75114Y243892D01*
X75134Y243870D01*
X75244Y243801D01*
X75350Y243726D01*
X75377Y243716D01*
X75403Y243700D01*
X75552Y243640D01*
X76846Y243220D01*
X78520Y242367D01*
X80041Y241262D01*
X81369Y239934D01*
X82474Y238413D01*
X83327Y236739D01*
X83908Y234952D01*
X83948Y234695D01*
X73533Y234695D01*
X73415Y234680D01*
X73296Y234673D01*
X73258Y234660D01*
X73218Y234655D01*
X73107Y234612D01*
X72994Y234575D01*
X72960Y234553D01*
X72922Y234538D01*
X72826Y234468D01*
X72725Y234405D01*
X72697Y234375D01*
X72665Y234351D01*
X72589Y234260D01*
X72507Y234173D01*
X72488Y234138D01*
X72462Y234107D01*
X72411Y233999D01*
X72354Y233895D01*
X72343Y233855D01*
X72326Y233819D01*
X72304Y233702D01*
X72274Y233587D01*
X72270Y233526D01*
X72266Y233506D01*
X72268Y233486D01*
X72264Y233426D01*
X72264Y232155D01*
X72262Y232155D01*
G37*
%LPD*%
%LPC*%
G36*
X102552Y346392D02*
X102552Y346392D01*
X102537Y346511D01*
X102529Y346629D01*
X102517Y346668D01*
X102512Y346708D01*
X102468Y346819D01*
X102431Y346932D01*
X102410Y346966D01*
X102395Y347004D01*
X102325Y347100D01*
X102261Y347200D01*
X102232Y347228D01*
X102208Y347261D01*
X102116Y347337D01*
X102030Y347418D01*
X101994Y347438D01*
X101963Y347464D01*
X101855Y347514D01*
X101751Y347572D01*
X101712Y347582D01*
X101675Y347599D01*
X101559Y347622D01*
X101443Y347651D01*
X101383Y347655D01*
X101363Y347659D01*
X101343Y347658D01*
X101282Y347662D01*
X100012Y347662D01*
X100012Y347663D01*
X101282Y347663D01*
X101401Y347678D01*
X101519Y347686D01*
X101558Y347698D01*
X101598Y347703D01*
X101709Y347747D01*
X101822Y347784D01*
X101856Y347805D01*
X101894Y347820D01*
X101990Y347890D01*
X102091Y347954D01*
X102118Y347983D01*
X102151Y348007D01*
X102227Y348099D01*
X102309Y348186D01*
X102328Y348221D01*
X102354Y348252D01*
X102405Y348360D01*
X102462Y348464D01*
X102472Y348503D01*
X102489Y348540D01*
X102512Y348657D01*
X102541Y348772D01*
X102545Y348832D01*
X102549Y348852D01*
X102548Y348872D01*
X102552Y348933D01*
X102552Y359348D01*
X102808Y359307D01*
X104595Y358727D01*
X106270Y357873D01*
X107790Y356769D01*
X109119Y355440D01*
X110223Y353920D01*
X111077Y352245D01*
X111657Y350458D01*
X111732Y349986D01*
X111768Y349862D01*
X111798Y349736D01*
X111812Y349709D01*
X111821Y349680D01*
X111886Y349569D01*
X111947Y349455D01*
X111967Y349433D01*
X111983Y349407D01*
X112074Y349315D01*
X112161Y349220D01*
X112186Y349203D01*
X112207Y349182D01*
X112319Y349116D01*
X112427Y349045D01*
X112455Y349035D01*
X112481Y349020D01*
X112605Y348984D01*
X112727Y348942D01*
X112757Y348939D01*
X112786Y348931D01*
X112915Y348927D01*
X113044Y348916D01*
X113074Y348922D01*
X113104Y348921D01*
X113230Y348949D01*
X113358Y348971D01*
X113385Y348983D01*
X113415Y348990D01*
X113530Y349048D01*
X113648Y349101D01*
X113671Y349120D01*
X113698Y349134D01*
X113795Y349219D01*
X113896Y349300D01*
X113914Y349324D01*
X113937Y349344D01*
X114009Y349451D01*
X114087Y349554D01*
X114106Y349593D01*
X114116Y349607D01*
X114123Y349628D01*
X114158Y349699D01*
X115937Y353994D01*
X119081Y357138D01*
X123189Y358839D01*
X127636Y358839D01*
X131744Y357138D01*
X134888Y353994D01*
X136589Y349886D01*
X136589Y345439D01*
X134888Y341331D01*
X131744Y338187D01*
X127636Y336486D01*
X123189Y336486D01*
X119081Y338187D01*
X115937Y341331D01*
X114158Y345626D01*
X114094Y345738D01*
X114036Y345854D01*
X114016Y345876D01*
X114001Y345903D01*
X113911Y345995D01*
X113825Y346092D01*
X113801Y346109D01*
X113779Y346131D01*
X113669Y346199D01*
X113562Y346271D01*
X113534Y346281D01*
X113508Y346297D01*
X113385Y346335D01*
X113263Y346379D01*
X113233Y346382D01*
X113204Y346391D01*
X113076Y346397D01*
X112947Y346409D01*
X112917Y346405D01*
X112887Y346406D01*
X112760Y346380D01*
X112633Y346360D01*
X112605Y346348D01*
X112575Y346342D01*
X112459Y346285D01*
X112341Y346234D01*
X112317Y346215D01*
X112290Y346202D01*
X112191Y346118D01*
X112089Y346039D01*
X112071Y346015D01*
X112048Y345996D01*
X111973Y345890D01*
X111894Y345788D01*
X111882Y345760D01*
X111865Y345736D01*
X111819Y345615D01*
X111767Y345496D01*
X111758Y345454D01*
X111752Y345438D01*
X111749Y345416D01*
X111732Y345339D01*
X111657Y344867D01*
X111077Y343080D01*
X110223Y341405D01*
X109119Y339885D01*
X107790Y338556D01*
X106270Y337452D01*
X104595Y336598D01*
X102808Y336018D01*
X102552Y335977D01*
X102552Y346392D01*
G37*
%LPD*%
%LPC*%
G36*
X113092Y16930D02*
X113092Y16930D01*
X111305Y17511D01*
X109630Y18364D01*
X108110Y19469D01*
X106781Y20797D01*
X105677Y22318D01*
X104823Y23992D01*
X104243Y25779D01*
X104168Y26252D01*
X104132Y26375D01*
X104102Y26501D01*
X104088Y26528D01*
X104079Y26557D01*
X104014Y26668D01*
X103953Y26782D01*
X103933Y26805D01*
X103917Y26831D01*
X103826Y26922D01*
X103739Y27018D01*
X103714Y27034D01*
X103693Y27056D01*
X103582Y27121D01*
X103473Y27193D01*
X103445Y27202D01*
X103419Y27218D01*
X103295Y27254D01*
X103173Y27296D01*
X103143Y27298D01*
X103114Y27307D01*
X102985Y27311D01*
X102856Y27321D01*
X102826Y27316D01*
X102796Y27317D01*
X102670Y27289D01*
X102542Y27267D01*
X102515Y27254D01*
X102485Y27248D01*
X102370Y27189D01*
X102252Y27136D01*
X102229Y27117D01*
X102202Y27103D01*
X102104Y27018D01*
X102004Y26937D01*
X101986Y26913D01*
X101963Y26893D01*
X101890Y26786D01*
X101813Y26683D01*
X101794Y26645D01*
X101784Y26631D01*
X101777Y26610D01*
X101742Y26539D01*
X99963Y22244D01*
X96819Y19100D01*
X92711Y17398D01*
X88264Y17398D01*
X84156Y19100D01*
X81012Y22244D01*
X79311Y26352D01*
X79311Y30798D01*
X81012Y34906D01*
X84156Y38050D01*
X88264Y39752D01*
X92711Y39752D01*
X96819Y38050D01*
X99963Y34906D01*
X101742Y30611D01*
X101806Y30499D01*
X101864Y30384D01*
X101884Y30361D01*
X101899Y30335D01*
X101989Y30242D01*
X102075Y30145D01*
X102099Y30128D01*
X102121Y30107D01*
X102231Y30039D01*
X102338Y29966D01*
X102366Y29956D01*
X102392Y29940D01*
X102515Y29902D01*
X102637Y29858D01*
X102667Y29856D01*
X102696Y29847D01*
X102824Y29841D01*
X102953Y29828D01*
X102983Y29833D01*
X103013Y29832D01*
X103140Y29858D01*
X103267Y29878D01*
X103295Y29890D01*
X103325Y29896D01*
X103441Y29953D01*
X103559Y30004D01*
X103583Y30022D01*
X103610Y30036D01*
X103709Y30119D01*
X103811Y30199D01*
X103829Y30222D01*
X103852Y30242D01*
X103927Y30348D01*
X104006Y30450D01*
X104018Y30477D01*
X104035Y30502D01*
X104081Y30623D01*
X104133Y30741D01*
X104142Y30783D01*
X104148Y30799D01*
X104151Y30821D01*
X104168Y30898D01*
X104243Y31371D01*
X104823Y33158D01*
X105677Y34832D01*
X106781Y36353D01*
X108110Y37681D01*
X109630Y38786D01*
X111305Y39639D01*
X113092Y40220D01*
X113348Y40260D01*
X113348Y29845D01*
X113363Y29727D01*
X113371Y29608D01*
X113383Y29570D01*
X113388Y29530D01*
X113432Y29419D01*
X113469Y29306D01*
X113490Y29272D01*
X113505Y29234D01*
X113575Y29138D01*
X113639Y29037D01*
X113668Y29009D01*
X113692Y28977D01*
X113784Y28901D01*
X113870Y28819D01*
X113906Y28800D01*
X113937Y28774D01*
X114045Y28723D01*
X114149Y28666D01*
X114188Y28655D01*
X114225Y28638D01*
X114341Y28616D01*
X114457Y28586D01*
X114517Y28582D01*
X114537Y28578D01*
X114557Y28580D01*
X114618Y28576D01*
X115888Y28576D01*
X115888Y28574D01*
X114618Y28574D01*
X114499Y28559D01*
X114381Y28552D01*
X114342Y28539D01*
X114302Y28534D01*
X114191Y28490D01*
X114078Y28454D01*
X114044Y28432D01*
X114006Y28417D01*
X113910Y28347D01*
X113809Y28284D01*
X113782Y28254D01*
X113749Y28230D01*
X113673Y28139D01*
X113591Y28052D01*
X113572Y28017D01*
X113546Y27985D01*
X113495Y27878D01*
X113438Y27773D01*
X113428Y27734D01*
X113411Y27698D01*
X113388Y27581D01*
X113358Y27466D01*
X113355Y27405D01*
X113351Y27385D01*
X113352Y27365D01*
X113348Y27305D01*
X113348Y16890D01*
X113092Y16930D01*
G37*
%LPD*%
%LPC*%
G36*
X113092Y48680D02*
X113092Y48680D01*
X111305Y49261D01*
X109630Y50114D01*
X108110Y51219D01*
X106781Y52547D01*
X105677Y54068D01*
X104823Y55742D01*
X104243Y57529D01*
X104168Y58002D01*
X104132Y58125D01*
X104102Y58251D01*
X104088Y58278D01*
X104079Y58307D01*
X104014Y58418D01*
X103953Y58532D01*
X103933Y58555D01*
X103917Y58581D01*
X103826Y58672D01*
X103739Y58768D01*
X103714Y58784D01*
X103693Y58806D01*
X103581Y58872D01*
X103473Y58943D01*
X103445Y58952D01*
X103419Y58968D01*
X103295Y59004D01*
X103173Y59046D01*
X103143Y59048D01*
X103114Y59057D01*
X102985Y59061D01*
X102856Y59071D01*
X102826Y59066D01*
X102796Y59067D01*
X102670Y59039D01*
X102542Y59017D01*
X102515Y59004D01*
X102485Y58998D01*
X102370Y58939D01*
X102252Y58886D01*
X102229Y58867D01*
X102202Y58854D01*
X102105Y58768D01*
X102004Y58687D01*
X101986Y58663D01*
X101963Y58643D01*
X101891Y58537D01*
X101813Y58433D01*
X101794Y58395D01*
X101784Y58381D01*
X101777Y58360D01*
X101742Y58289D01*
X99963Y53994D01*
X96819Y50850D01*
X92711Y49148D01*
X88264Y49148D01*
X84156Y50850D01*
X81012Y53994D01*
X79311Y58102D01*
X79311Y62548D01*
X81012Y66656D01*
X84156Y69800D01*
X88264Y71502D01*
X92711Y71502D01*
X96819Y69800D01*
X99963Y66656D01*
X101742Y62361D01*
X101806Y62249D01*
X101864Y62134D01*
X101884Y62111D01*
X101899Y62085D01*
X101989Y61992D01*
X102075Y61895D01*
X102099Y61878D01*
X102121Y61856D01*
X102231Y61789D01*
X102338Y61716D01*
X102366Y61706D01*
X102392Y61690D01*
X102515Y61652D01*
X102637Y61608D01*
X102667Y61605D01*
X102696Y61597D01*
X102824Y61591D01*
X102953Y61578D01*
X102983Y61583D01*
X103013Y61582D01*
X103140Y61608D01*
X103267Y61628D01*
X103295Y61640D01*
X103325Y61646D01*
X103441Y61703D01*
X103559Y61754D01*
X103583Y61772D01*
X103610Y61786D01*
X103709Y61870D01*
X103811Y61948D01*
X103829Y61972D01*
X103852Y61992D01*
X103927Y62098D01*
X104006Y62200D01*
X104018Y62227D01*
X104035Y62252D01*
X104081Y62373D01*
X104133Y62491D01*
X104142Y62533D01*
X104148Y62549D01*
X104151Y62571D01*
X104168Y62648D01*
X104243Y63121D01*
X104823Y64908D01*
X105677Y66582D01*
X106781Y68103D01*
X108110Y69431D01*
X109630Y70536D01*
X111305Y71389D01*
X113092Y71970D01*
X113348Y72010D01*
X113348Y61595D01*
X113363Y61477D01*
X113371Y61358D01*
X113383Y61320D01*
X113388Y61280D01*
X113432Y61169D01*
X113469Y61056D01*
X113490Y61022D01*
X113505Y60984D01*
X113575Y60888D01*
X113639Y60787D01*
X113668Y60759D01*
X113692Y60727D01*
X113784Y60651D01*
X113870Y60569D01*
X113906Y60550D01*
X113937Y60524D01*
X114045Y60473D01*
X114149Y60416D01*
X114188Y60405D01*
X114225Y60388D01*
X114341Y60366D01*
X114457Y60336D01*
X114517Y60332D01*
X114537Y60328D01*
X114557Y60330D01*
X114618Y60326D01*
X115888Y60326D01*
X115888Y60324D01*
X114618Y60324D01*
X114499Y60309D01*
X114381Y60302D01*
X114342Y60289D01*
X114302Y60284D01*
X114191Y60240D01*
X114078Y60204D01*
X114044Y60182D01*
X114006Y60167D01*
X113910Y60097D01*
X113809Y60034D01*
X113782Y60004D01*
X113749Y59980D01*
X113673Y59889D01*
X113591Y59802D01*
X113572Y59767D01*
X113546Y59735D01*
X113495Y59628D01*
X113438Y59523D01*
X113428Y59484D01*
X113411Y59448D01*
X113388Y59331D01*
X113358Y59216D01*
X113355Y59155D01*
X113351Y59135D01*
X113352Y59115D01*
X113348Y59055D01*
X113348Y48640D01*
X113092Y48680D01*
G37*
%LPD*%
%LPC*%
G36*
X135064Y175767D02*
X135064Y175767D01*
X130956Y177469D01*
X127812Y180613D01*
X126110Y184721D01*
X126110Y189167D01*
X127812Y193275D01*
X130956Y196419D01*
X135064Y198121D01*
X139510Y198121D01*
X143618Y196419D01*
X146762Y193275D01*
X148464Y189167D01*
X148464Y184721D01*
X146762Y180613D01*
X143618Y177469D01*
X139510Y175767D01*
X135064Y175767D01*
G37*
%LPD*%
%LPC*%
G36*
X70040Y175767D02*
X70040Y175767D01*
X65932Y177469D01*
X62788Y180613D01*
X61086Y184721D01*
X61086Y189167D01*
X62788Y193275D01*
X65932Y196419D01*
X70040Y198121D01*
X74486Y198121D01*
X78594Y196419D01*
X81738Y193275D01*
X83440Y189167D01*
X83440Y184721D01*
X81738Y180613D01*
X78594Y177469D01*
X74486Y175767D01*
X70040Y175767D01*
G37*
%LPD*%
%LPC*%
G36*
X62864Y49148D02*
X62864Y49148D01*
X58756Y50850D01*
X55612Y53994D01*
X53911Y58102D01*
X53911Y62548D01*
X55612Y66656D01*
X58756Y69800D01*
X62864Y71502D01*
X67311Y71502D01*
X71419Y69800D01*
X74563Y66656D01*
X76264Y62548D01*
X76264Y58102D01*
X74563Y53994D01*
X71419Y50850D01*
X67311Y49148D01*
X62864Y49148D01*
G37*
%LPD*%
%LPC*%
G36*
X62864Y17398D02*
X62864Y17398D01*
X58756Y19100D01*
X55612Y22244D01*
X53911Y26352D01*
X53911Y30798D01*
X55612Y34906D01*
X58756Y38050D01*
X62864Y39752D01*
X67311Y39752D01*
X71419Y38050D01*
X74563Y34906D01*
X76264Y30798D01*
X76264Y26352D01*
X74563Y22244D01*
X71419Y19100D01*
X67311Y17398D01*
X62864Y17398D01*
G37*
%LPD*%
%LPC*%
G36*
X77152Y350202D02*
X77152Y350202D01*
X77152Y359348D01*
X77408Y359307D01*
X79195Y358727D01*
X80870Y357873D01*
X82390Y356769D01*
X83719Y355440D01*
X84823Y353920D01*
X85677Y352245D01*
X86105Y350926D01*
X86139Y350854D01*
X86164Y350778D01*
X86207Y350710D01*
X86241Y350638D01*
X86292Y350577D01*
X86334Y350509D01*
X86392Y350454D01*
X86443Y350393D01*
X86508Y350346D01*
X86566Y350291D01*
X86636Y350253D01*
X86701Y350206D01*
X86711Y350202D01*
X77152Y350202D01*
G37*
%LPD*%
%LPC*%
G36*
X97217Y336018D02*
X97217Y336018D01*
X95430Y336598D01*
X93755Y337452D01*
X92235Y338556D01*
X90906Y339885D01*
X89802Y341405D01*
X88948Y343080D01*
X88520Y344399D01*
X88486Y344471D01*
X88473Y344510D01*
X88461Y344547D01*
X88418Y344615D01*
X88384Y344687D01*
X88333Y344749D01*
X88291Y344816D01*
X88233Y344871D01*
X88182Y344932D01*
X88117Y344979D01*
X88059Y345034D01*
X87989Y345072D01*
X87924Y345119D01*
X87914Y345123D01*
X97473Y345123D01*
X97473Y335977D01*
X97217Y336018D01*
G37*
%LPD*%
%LPC*%
G36*
X77152Y345123D02*
X77152Y345123D01*
X86711Y345123D01*
X86702Y345120D01*
X86637Y345073D01*
X86568Y345035D01*
X86509Y344980D01*
X86444Y344933D01*
X86394Y344872D01*
X86335Y344817D01*
X86293Y344750D01*
X86242Y344688D01*
X86208Y344616D01*
X86165Y344549D01*
X86106Y344402D01*
X86106Y344401D01*
X86106Y344400D01*
X86105Y344399D01*
X85677Y343080D01*
X84823Y341405D01*
X83719Y339885D01*
X82390Y338556D01*
X80870Y337452D01*
X79195Y336598D01*
X77408Y336018D01*
X77152Y335977D01*
X77152Y345123D01*
G37*
%LPD*%
%LPC*%
G36*
X87914Y350202D02*
X87914Y350202D01*
X87923Y350205D01*
X87988Y350252D01*
X88057Y350290D01*
X88116Y350345D01*
X88181Y350392D01*
X88231Y350453D01*
X88290Y350508D01*
X88332Y350575D01*
X88384Y350637D01*
X88418Y350709D01*
X88460Y350776D01*
X88519Y350923D01*
X88519Y350924D01*
X88519Y350925D01*
X88520Y350926D01*
X88948Y352245D01*
X89802Y353920D01*
X90906Y355440D01*
X92235Y356769D01*
X93755Y357873D01*
X95430Y358727D01*
X97217Y359307D01*
X97473Y359348D01*
X97473Y350202D01*
X87914Y350202D01*
G37*
%LPD*%
%LPC*%
G36*
X118427Y62864D02*
X118427Y62864D01*
X118427Y72010D01*
X118683Y71970D01*
X120470Y71389D01*
X122145Y70536D01*
X123665Y69431D01*
X124994Y68103D01*
X126098Y66582D01*
X126952Y64908D01*
X127532Y63121D01*
X127573Y62864D01*
X118427Y62864D01*
G37*
%LPD*%
%LPC*%
G36*
X118427Y31114D02*
X118427Y31114D01*
X118427Y40260D01*
X118683Y40220D01*
X120470Y39639D01*
X122145Y38786D01*
X123665Y37681D01*
X124994Y36353D01*
X126098Y34832D01*
X126952Y33158D01*
X127532Y31371D01*
X127573Y31114D01*
X118427Y31114D01*
G37*
%LPD*%
%LPC*%
G36*
X60578Y304545D02*
X60578Y304545D01*
X60618Y304802D01*
X61199Y306589D01*
X62052Y308263D01*
X63157Y309784D01*
X64485Y311112D01*
X66006Y312217D01*
X67680Y313070D01*
X69467Y313651D01*
X69724Y313691D01*
X69724Y304545D01*
X60578Y304545D01*
G37*
%LPD*%
%LPC*%
G36*
X74802Y299467D02*
X74802Y299467D01*
X83948Y299467D01*
X83908Y299210D01*
X83327Y297423D01*
X82474Y295749D01*
X81369Y294228D01*
X80041Y292900D01*
X78520Y291795D01*
X76846Y290942D01*
X75059Y290361D01*
X74802Y290321D01*
X74802Y299467D01*
G37*
%LPD*%
%LPC*%
G36*
X74802Y229617D02*
X74802Y229617D01*
X83948Y229617D01*
X83908Y229360D01*
X83327Y227573D01*
X82474Y225899D01*
X81369Y224378D01*
X80041Y223050D01*
X78520Y221945D01*
X76846Y221092D01*
X75059Y220511D01*
X74802Y220471D01*
X74802Y229617D01*
G37*
%LPD*%
%LPC*%
G36*
X118427Y57786D02*
X118427Y57786D01*
X127573Y57786D01*
X127532Y57529D01*
X126952Y55742D01*
X126098Y54068D01*
X124994Y52547D01*
X123665Y51219D01*
X122145Y50114D01*
X120470Y49261D01*
X118683Y48680D01*
X118427Y48640D01*
X118427Y57786D01*
G37*
%LPD*%
%LPC*%
G36*
X118427Y26036D02*
X118427Y26036D01*
X127573Y26036D01*
X127532Y25779D01*
X126952Y23992D01*
X126098Y22318D01*
X124994Y20797D01*
X123665Y19469D01*
X122145Y18364D01*
X120470Y17511D01*
X118683Y16930D01*
X118427Y16890D01*
X118427Y26036D01*
G37*
%LPD*%
%LPC*%
G36*
X69467Y290361D02*
X69467Y290361D01*
X67680Y290942D01*
X66006Y291795D01*
X64485Y292900D01*
X63157Y294228D01*
X62052Y295749D01*
X61199Y297423D01*
X60618Y299210D01*
X60578Y299467D01*
X69724Y299467D01*
X69724Y290321D01*
X69467Y290361D01*
G37*
%LPD*%
%LPC*%
G36*
X69467Y220511D02*
X69467Y220511D01*
X67680Y221092D01*
X66006Y221945D01*
X64485Y223050D01*
X63157Y224378D01*
X62052Y225899D01*
X61199Y227573D01*
X60618Y229360D01*
X60578Y229617D01*
X69724Y229617D01*
X69724Y220471D01*
X69467Y220511D01*
G37*
%LPD*%
%LPC*%
G36*
X14985Y319785D02*
X14985Y319785D01*
X14985Y328711D01*
X15377Y328649D01*
X17088Y328093D01*
X18691Y327277D01*
X20147Y326219D01*
X21419Y324947D01*
X22477Y323491D01*
X23293Y321888D01*
X23849Y320177D01*
X23911Y319785D01*
X14985Y319785D01*
G37*
%LPD*%
%LPC*%
G36*
X153889Y370585D02*
X153889Y370585D01*
X153951Y370977D01*
X154507Y372688D01*
X155323Y374291D01*
X156381Y375747D01*
X157653Y377019D01*
X159109Y378077D01*
X160712Y378893D01*
X162423Y379449D01*
X162815Y379511D01*
X162815Y370585D01*
X153889Y370585D01*
G37*
%LPD*%
%LPC*%
G36*
X14985Y315215D02*
X14985Y315215D01*
X23911Y315215D01*
X23849Y314823D01*
X23293Y313112D01*
X22477Y311509D01*
X21419Y310053D01*
X20147Y308781D01*
X18691Y307723D01*
X17088Y306907D01*
X15377Y306351D01*
X14985Y306289D01*
X14985Y315215D01*
G37*
%LPD*%
%LPC*%
G36*
X162423Y357151D02*
X162423Y357151D01*
X160712Y357707D01*
X159109Y358523D01*
X157653Y359581D01*
X156381Y360853D01*
X155323Y362309D01*
X154507Y363912D01*
X153951Y365623D01*
X153889Y366015D01*
X162815Y366015D01*
X162815Y357089D01*
X162423Y357151D01*
G37*
%LPD*%
%LPC*%
G36*
X72262Y302005D02*
X72262Y302005D01*
X72262Y302007D01*
X72264Y302007D01*
X72264Y302005D01*
X72262Y302005D01*
G37*
%LPD*%
D10*
X0Y0D02*
X177600Y0D01*
X177600Y431675D01*
X0Y431675D01*
X0Y0D01*
D11*
X65088Y60325D03*
X90488Y60325D03*
X115888Y60325D03*
D12*
X12700Y393700D03*
D13*
X12700Y368300D03*
X12700Y342900D03*
X12700Y317500D03*
X12700Y292100D03*
X12700Y266700D03*
X12700Y241300D03*
X12700Y215900D03*
X12700Y190500D03*
X12700Y165100D03*
X12700Y139700D03*
X12700Y114300D03*
X12700Y88900D03*
X12700Y63500D03*
X12700Y38100D03*
X165100Y393700D03*
X165100Y368300D03*
X165100Y342900D03*
X165100Y317500D03*
X165100Y292100D03*
X165100Y266700D03*
X165100Y241300D03*
X165100Y215900D03*
X165100Y190500D03*
X165100Y165100D03*
X165100Y139700D03*
X165100Y114300D03*
X165100Y88900D03*
X165100Y63500D03*
X165100Y38100D03*
D10*
X4445Y12700D02*
X4447Y12903D01*
X4455Y13105D01*
X4467Y13307D01*
X4485Y13509D01*
X4507Y13711D01*
X4534Y13911D01*
X4567Y14111D01*
X4604Y14310D01*
X4646Y14509D01*
X4692Y14706D01*
X4744Y14902D01*
X4800Y15096D01*
X4862Y15289D01*
X4928Y15481D01*
X4998Y15671D01*
X5073Y15859D01*
X5153Y16045D01*
X5238Y16229D01*
X5326Y16412D01*
X5420Y16591D01*
X5517Y16769D01*
X5619Y16944D01*
X5726Y17116D01*
X5836Y17286D01*
X5951Y17453D01*
X6070Y17617D01*
X6192Y17779D01*
X6319Y17937D01*
X6449Y18092D01*
X6583Y18244D01*
X6721Y18392D01*
X6863Y18537D01*
X7008Y18679D01*
X7156Y18817D01*
X7308Y18951D01*
X7463Y19081D01*
X7621Y19208D01*
X7783Y19330D01*
X7947Y19449D01*
X8114Y19564D01*
X8284Y19674D01*
X8456Y19781D01*
X8631Y19883D01*
X8809Y19980D01*
X8988Y20074D01*
X9171Y20162D01*
X9355Y20247D01*
X9541Y20327D01*
X9729Y20402D01*
X9919Y20472D01*
X10111Y20538D01*
X10304Y20600D01*
X10498Y20656D01*
X10694Y20708D01*
X10891Y20754D01*
X11090Y20796D01*
X11289Y20833D01*
X11489Y20866D01*
X11689Y20893D01*
X11891Y20915D01*
X12093Y20933D01*
X12295Y20945D01*
X12497Y20953D01*
X12700Y20955D01*
X12903Y20953D01*
X13105Y20945D01*
X13307Y20933D01*
X13509Y20915D01*
X13711Y20893D01*
X13911Y20866D01*
X14111Y20833D01*
X14310Y20796D01*
X14509Y20754D01*
X14706Y20708D01*
X14902Y20656D01*
X15096Y20600D01*
X15289Y20538D01*
X15481Y20472D01*
X15671Y20402D01*
X15859Y20327D01*
X16045Y20247D01*
X16229Y20162D01*
X16412Y20074D01*
X16591Y19980D01*
X16769Y19883D01*
X16944Y19781D01*
X17116Y19674D01*
X17286Y19564D01*
X17453Y19449D01*
X17617Y19330D01*
X17779Y19208D01*
X17937Y19081D01*
X18092Y18951D01*
X18244Y18817D01*
X18392Y18679D01*
X18537Y18537D01*
X18679Y18392D01*
X18817Y18244D01*
X18951Y18092D01*
X19081Y17937D01*
X19208Y17779D01*
X19330Y17617D01*
X19449Y17453D01*
X19564Y17286D01*
X19674Y17116D01*
X19781Y16944D01*
X19883Y16769D01*
X19980Y16591D01*
X20074Y16412D01*
X20162Y16229D01*
X20247Y16045D01*
X20327Y15859D01*
X20402Y15671D01*
X20472Y15481D01*
X20538Y15289D01*
X20600Y15096D01*
X20656Y14902D01*
X20708Y14706D01*
X20754Y14509D01*
X20796Y14310D01*
X20833Y14111D01*
X20866Y13911D01*
X20893Y13711D01*
X20915Y13509D01*
X20933Y13307D01*
X20945Y13105D01*
X20953Y12903D01*
X20955Y12700D01*
X20953Y12497D01*
X20945Y12295D01*
X20933Y12093D01*
X20915Y11891D01*
X20893Y11689D01*
X20866Y11489D01*
X20833Y11289D01*
X20796Y11090D01*
X20754Y10891D01*
X20708Y10694D01*
X20656Y10498D01*
X20600Y10304D01*
X20538Y10111D01*
X20472Y9919D01*
X20402Y9729D01*
X20327Y9541D01*
X20247Y9355D01*
X20162Y9171D01*
X20074Y8988D01*
X19980Y8809D01*
X19883Y8631D01*
X19781Y8456D01*
X19674Y8284D01*
X19564Y8114D01*
X19449Y7947D01*
X19330Y7783D01*
X19208Y7621D01*
X19081Y7463D01*
X18951Y7308D01*
X18817Y7156D01*
X18679Y7008D01*
X18537Y6863D01*
X18392Y6721D01*
X18244Y6583D01*
X18092Y6449D01*
X17937Y6319D01*
X17779Y6192D01*
X17617Y6070D01*
X17453Y5951D01*
X17286Y5836D01*
X17116Y5726D01*
X16944Y5619D01*
X16769Y5517D01*
X16591Y5420D01*
X16412Y5326D01*
X16229Y5238D01*
X16045Y5153D01*
X15859Y5073D01*
X15671Y4998D01*
X15481Y4928D01*
X15289Y4862D01*
X15096Y4800D01*
X14902Y4744D01*
X14706Y4692D01*
X14509Y4646D01*
X14310Y4604D01*
X14111Y4567D01*
X13911Y4534D01*
X13711Y4507D01*
X13509Y4485D01*
X13307Y4467D01*
X13105Y4455D01*
X12903Y4447D01*
X12700Y4445D01*
X12497Y4447D01*
X12295Y4455D01*
X12093Y4467D01*
X11891Y4485D01*
X11689Y4507D01*
X11489Y4534D01*
X11289Y4567D01*
X11090Y4604D01*
X10891Y4646D01*
X10694Y4692D01*
X10498Y4744D01*
X10304Y4800D01*
X10111Y4862D01*
X9919Y4928D01*
X9729Y4998D01*
X9541Y5073D01*
X9355Y5153D01*
X9171Y5238D01*
X8988Y5326D01*
X8809Y5420D01*
X8631Y5517D01*
X8456Y5619D01*
X8284Y5726D01*
X8114Y5836D01*
X7947Y5951D01*
X7783Y6070D01*
X7621Y6192D01*
X7463Y6319D01*
X7308Y6449D01*
X7156Y6583D01*
X7008Y6721D01*
X6863Y6863D01*
X6721Y7008D01*
X6583Y7156D01*
X6449Y7308D01*
X6319Y7463D01*
X6192Y7621D01*
X6070Y7783D01*
X5951Y7947D01*
X5836Y8114D01*
X5726Y8284D01*
X5619Y8456D01*
X5517Y8631D01*
X5420Y8809D01*
X5326Y8988D01*
X5238Y9171D01*
X5153Y9355D01*
X5073Y9541D01*
X4998Y9729D01*
X4928Y9919D01*
X4862Y10111D01*
X4800Y10304D01*
X4744Y10498D01*
X4692Y10694D01*
X4646Y10891D01*
X4604Y11090D01*
X4567Y11289D01*
X4534Y11489D01*
X4507Y11689D01*
X4485Y11891D01*
X4467Y12093D01*
X4455Y12295D01*
X4447Y12497D01*
X4445Y12700D01*
X156845Y12700D02*
X156847Y12903D01*
X156855Y13105D01*
X156867Y13307D01*
X156885Y13509D01*
X156907Y13711D01*
X156934Y13911D01*
X156967Y14111D01*
X157004Y14310D01*
X157046Y14509D01*
X157092Y14706D01*
X157144Y14902D01*
X157200Y15096D01*
X157262Y15289D01*
X157328Y15481D01*
X157398Y15671D01*
X157473Y15859D01*
X157553Y16045D01*
X157638Y16229D01*
X157726Y16412D01*
X157820Y16591D01*
X157917Y16769D01*
X158019Y16944D01*
X158126Y17116D01*
X158236Y17286D01*
X158351Y17453D01*
X158470Y17617D01*
X158592Y17779D01*
X158719Y17937D01*
X158849Y18092D01*
X158983Y18244D01*
X159121Y18392D01*
X159263Y18537D01*
X159408Y18679D01*
X159556Y18817D01*
X159708Y18951D01*
X159863Y19081D01*
X160021Y19208D01*
X160183Y19330D01*
X160347Y19449D01*
X160514Y19564D01*
X160684Y19674D01*
X160856Y19781D01*
X161031Y19883D01*
X161209Y19980D01*
X161388Y20074D01*
X161571Y20162D01*
X161755Y20247D01*
X161941Y20327D01*
X162129Y20402D01*
X162319Y20472D01*
X162511Y20538D01*
X162704Y20600D01*
X162898Y20656D01*
X163094Y20708D01*
X163291Y20754D01*
X163490Y20796D01*
X163689Y20833D01*
X163889Y20866D01*
X164089Y20893D01*
X164291Y20915D01*
X164493Y20933D01*
X164695Y20945D01*
X164897Y20953D01*
X165100Y20955D01*
X165303Y20953D01*
X165505Y20945D01*
X165707Y20933D01*
X165909Y20915D01*
X166111Y20893D01*
X166311Y20866D01*
X166511Y20833D01*
X166710Y20796D01*
X166909Y20754D01*
X167106Y20708D01*
X167302Y20656D01*
X167496Y20600D01*
X167689Y20538D01*
X167881Y20472D01*
X168071Y20402D01*
X168259Y20327D01*
X168445Y20247D01*
X168629Y20162D01*
X168812Y20074D01*
X168991Y19980D01*
X169169Y19883D01*
X169344Y19781D01*
X169516Y19674D01*
X169686Y19564D01*
X169853Y19449D01*
X170017Y19330D01*
X170179Y19208D01*
X170337Y19081D01*
X170492Y18951D01*
X170644Y18817D01*
X170792Y18679D01*
X170937Y18537D01*
X171079Y18392D01*
X171217Y18244D01*
X171351Y18092D01*
X171481Y17937D01*
X171608Y17779D01*
X171730Y17617D01*
X171849Y17453D01*
X171964Y17286D01*
X172074Y17116D01*
X172181Y16944D01*
X172283Y16769D01*
X172380Y16591D01*
X172474Y16412D01*
X172562Y16229D01*
X172647Y16045D01*
X172727Y15859D01*
X172802Y15671D01*
X172872Y15481D01*
X172938Y15289D01*
X173000Y15096D01*
X173056Y14902D01*
X173108Y14706D01*
X173154Y14509D01*
X173196Y14310D01*
X173233Y14111D01*
X173266Y13911D01*
X173293Y13711D01*
X173315Y13509D01*
X173333Y13307D01*
X173345Y13105D01*
X173353Y12903D01*
X173355Y12700D01*
X173353Y12497D01*
X173345Y12295D01*
X173333Y12093D01*
X173315Y11891D01*
X173293Y11689D01*
X173266Y11489D01*
X173233Y11289D01*
X173196Y11090D01*
X173154Y10891D01*
X173108Y10694D01*
X173056Y10498D01*
X173000Y10304D01*
X172938Y10111D01*
X172872Y9919D01*
X172802Y9729D01*
X172727Y9541D01*
X172647Y9355D01*
X172562Y9171D01*
X172474Y8988D01*
X172380Y8809D01*
X172283Y8631D01*
X172181Y8456D01*
X172074Y8284D01*
X171964Y8114D01*
X171849Y7947D01*
X171730Y7783D01*
X171608Y7621D01*
X171481Y7463D01*
X171351Y7308D01*
X171217Y7156D01*
X171079Y7008D01*
X170937Y6863D01*
X170792Y6721D01*
X170644Y6583D01*
X170492Y6449D01*
X170337Y6319D01*
X170179Y6192D01*
X170017Y6070D01*
X169853Y5951D01*
X169686Y5836D01*
X169516Y5726D01*
X169344Y5619D01*
X169169Y5517D01*
X168991Y5420D01*
X168812Y5326D01*
X168629Y5238D01*
X168445Y5153D01*
X168259Y5073D01*
X168071Y4998D01*
X167881Y4928D01*
X167689Y4862D01*
X167496Y4800D01*
X167302Y4744D01*
X167106Y4692D01*
X166909Y4646D01*
X166710Y4604D01*
X166511Y4567D01*
X166311Y4534D01*
X166111Y4507D01*
X165909Y4485D01*
X165707Y4467D01*
X165505Y4455D01*
X165303Y4447D01*
X165100Y4445D01*
X164897Y4447D01*
X164695Y4455D01*
X164493Y4467D01*
X164291Y4485D01*
X164089Y4507D01*
X163889Y4534D01*
X163689Y4567D01*
X163490Y4604D01*
X163291Y4646D01*
X163094Y4692D01*
X162898Y4744D01*
X162704Y4800D01*
X162511Y4862D01*
X162319Y4928D01*
X162129Y4998D01*
X161941Y5073D01*
X161755Y5153D01*
X161571Y5238D01*
X161388Y5326D01*
X161209Y5420D01*
X161031Y5517D01*
X160856Y5619D01*
X160684Y5726D01*
X160514Y5836D01*
X160347Y5951D01*
X160183Y6070D01*
X160021Y6192D01*
X159863Y6319D01*
X159708Y6449D01*
X159556Y6583D01*
X159408Y6721D01*
X159263Y6863D01*
X159121Y7008D01*
X158983Y7156D01*
X158849Y7308D01*
X158719Y7463D01*
X158592Y7621D01*
X158470Y7783D01*
X158351Y7947D01*
X158236Y8114D01*
X158126Y8284D01*
X158019Y8456D01*
X157917Y8631D01*
X157820Y8809D01*
X157726Y8988D01*
X157638Y9171D01*
X157553Y9355D01*
X157473Y9541D01*
X157398Y9729D01*
X157328Y9919D01*
X157262Y10111D01*
X157200Y10304D01*
X157144Y10498D01*
X157092Y10694D01*
X157046Y10891D01*
X157004Y11090D01*
X156967Y11289D01*
X156934Y11489D01*
X156907Y11689D01*
X156885Y11891D01*
X156867Y12093D01*
X156855Y12295D01*
X156847Y12497D01*
X156845Y12700D01*
X156845Y419100D02*
X156847Y419303D01*
X156855Y419505D01*
X156867Y419707D01*
X156885Y419909D01*
X156907Y420111D01*
X156934Y420311D01*
X156967Y420511D01*
X157004Y420710D01*
X157046Y420909D01*
X157092Y421106D01*
X157144Y421302D01*
X157200Y421496D01*
X157262Y421689D01*
X157328Y421881D01*
X157398Y422071D01*
X157473Y422259D01*
X157553Y422445D01*
X157638Y422629D01*
X157726Y422812D01*
X157820Y422991D01*
X157917Y423169D01*
X158019Y423344D01*
X158126Y423516D01*
X158236Y423686D01*
X158351Y423853D01*
X158470Y424017D01*
X158592Y424179D01*
X158719Y424337D01*
X158849Y424492D01*
X158983Y424644D01*
X159121Y424792D01*
X159263Y424937D01*
X159408Y425079D01*
X159556Y425217D01*
X159708Y425351D01*
X159863Y425481D01*
X160021Y425608D01*
X160183Y425730D01*
X160347Y425849D01*
X160514Y425964D01*
X160684Y426074D01*
X160856Y426181D01*
X161031Y426283D01*
X161209Y426380D01*
X161388Y426474D01*
X161571Y426562D01*
X161755Y426647D01*
X161941Y426727D01*
X162129Y426802D01*
X162319Y426872D01*
X162511Y426938D01*
X162704Y427000D01*
X162898Y427056D01*
X163094Y427108D01*
X163291Y427154D01*
X163490Y427196D01*
X163689Y427233D01*
X163889Y427266D01*
X164089Y427293D01*
X164291Y427315D01*
X164493Y427333D01*
X164695Y427345D01*
X164897Y427353D01*
X165100Y427355D01*
X165303Y427353D01*
X165505Y427345D01*
X165707Y427333D01*
X165909Y427315D01*
X166111Y427293D01*
X166311Y427266D01*
X166511Y427233D01*
X166710Y427196D01*
X166909Y427154D01*
X167106Y427108D01*
X167302Y427056D01*
X167496Y427000D01*
X167689Y426938D01*
X167881Y426872D01*
X168071Y426802D01*
X168259Y426727D01*
X168445Y426647D01*
X168629Y426562D01*
X168812Y426474D01*
X168991Y426380D01*
X169169Y426283D01*
X169344Y426181D01*
X169516Y426074D01*
X169686Y425964D01*
X169853Y425849D01*
X170017Y425730D01*
X170179Y425608D01*
X170337Y425481D01*
X170492Y425351D01*
X170644Y425217D01*
X170792Y425079D01*
X170937Y424937D01*
X171079Y424792D01*
X171217Y424644D01*
X171351Y424492D01*
X171481Y424337D01*
X171608Y424179D01*
X171730Y424017D01*
X171849Y423853D01*
X171964Y423686D01*
X172074Y423516D01*
X172181Y423344D01*
X172283Y423169D01*
X172380Y422991D01*
X172474Y422812D01*
X172562Y422629D01*
X172647Y422445D01*
X172727Y422259D01*
X172802Y422071D01*
X172872Y421881D01*
X172938Y421689D01*
X173000Y421496D01*
X173056Y421302D01*
X173108Y421106D01*
X173154Y420909D01*
X173196Y420710D01*
X173233Y420511D01*
X173266Y420311D01*
X173293Y420111D01*
X173315Y419909D01*
X173333Y419707D01*
X173345Y419505D01*
X173353Y419303D01*
X173355Y419100D01*
X173353Y418897D01*
X173345Y418695D01*
X173333Y418493D01*
X173315Y418291D01*
X173293Y418089D01*
X173266Y417889D01*
X173233Y417689D01*
X173196Y417490D01*
X173154Y417291D01*
X173108Y417094D01*
X173056Y416898D01*
X173000Y416704D01*
X172938Y416511D01*
X172872Y416319D01*
X172802Y416129D01*
X172727Y415941D01*
X172647Y415755D01*
X172562Y415571D01*
X172474Y415388D01*
X172380Y415209D01*
X172283Y415031D01*
X172181Y414856D01*
X172074Y414684D01*
X171964Y414514D01*
X171849Y414347D01*
X171730Y414183D01*
X171608Y414021D01*
X171481Y413863D01*
X171351Y413708D01*
X171217Y413556D01*
X171079Y413408D01*
X170937Y413263D01*
X170792Y413121D01*
X170644Y412983D01*
X170492Y412849D01*
X170337Y412719D01*
X170179Y412592D01*
X170017Y412470D01*
X169853Y412351D01*
X169686Y412236D01*
X169516Y412126D01*
X169344Y412019D01*
X169169Y411917D01*
X168991Y411820D01*
X168812Y411726D01*
X168629Y411638D01*
X168445Y411553D01*
X168259Y411473D01*
X168071Y411398D01*
X167881Y411328D01*
X167689Y411262D01*
X167496Y411200D01*
X167302Y411144D01*
X167106Y411092D01*
X166909Y411046D01*
X166710Y411004D01*
X166511Y410967D01*
X166311Y410934D01*
X166111Y410907D01*
X165909Y410885D01*
X165707Y410867D01*
X165505Y410855D01*
X165303Y410847D01*
X165100Y410845D01*
X164897Y410847D01*
X164695Y410855D01*
X164493Y410867D01*
X164291Y410885D01*
X164089Y410907D01*
X163889Y410934D01*
X163689Y410967D01*
X163490Y411004D01*
X163291Y411046D01*
X163094Y411092D01*
X162898Y411144D01*
X162704Y411200D01*
X162511Y411262D01*
X162319Y411328D01*
X162129Y411398D01*
X161941Y411473D01*
X161755Y411553D01*
X161571Y411638D01*
X161388Y411726D01*
X161209Y411820D01*
X161031Y411917D01*
X160856Y412019D01*
X160684Y412126D01*
X160514Y412236D01*
X160347Y412351D01*
X160183Y412470D01*
X160021Y412592D01*
X159863Y412719D01*
X159708Y412849D01*
X159556Y412983D01*
X159408Y413121D01*
X159263Y413263D01*
X159121Y413408D01*
X158983Y413556D01*
X158849Y413708D01*
X158719Y413863D01*
X158592Y414021D01*
X158470Y414183D01*
X158351Y414347D01*
X158236Y414514D01*
X158126Y414684D01*
X158019Y414856D01*
X157917Y415031D01*
X157820Y415209D01*
X157726Y415388D01*
X157638Y415571D01*
X157553Y415755D01*
X157473Y415941D01*
X157398Y416129D01*
X157328Y416319D01*
X157262Y416511D01*
X157200Y416704D01*
X157144Y416898D01*
X157092Y417094D01*
X157046Y417291D01*
X157004Y417490D01*
X156967Y417689D01*
X156934Y417889D01*
X156907Y418089D01*
X156885Y418291D01*
X156867Y418493D01*
X156855Y418695D01*
X156847Y418897D01*
X156845Y419100D01*
X4445Y419100D02*
X4447Y419303D01*
X4455Y419505D01*
X4467Y419707D01*
X4485Y419909D01*
X4507Y420111D01*
X4534Y420311D01*
X4567Y420511D01*
X4604Y420710D01*
X4646Y420909D01*
X4692Y421106D01*
X4744Y421302D01*
X4800Y421496D01*
X4862Y421689D01*
X4928Y421881D01*
X4998Y422071D01*
X5073Y422259D01*
X5153Y422445D01*
X5238Y422629D01*
X5326Y422812D01*
X5420Y422991D01*
X5517Y423169D01*
X5619Y423344D01*
X5726Y423516D01*
X5836Y423686D01*
X5951Y423853D01*
X6070Y424017D01*
X6192Y424179D01*
X6319Y424337D01*
X6449Y424492D01*
X6583Y424644D01*
X6721Y424792D01*
X6863Y424937D01*
X7008Y425079D01*
X7156Y425217D01*
X7308Y425351D01*
X7463Y425481D01*
X7621Y425608D01*
X7783Y425730D01*
X7947Y425849D01*
X8114Y425964D01*
X8284Y426074D01*
X8456Y426181D01*
X8631Y426283D01*
X8809Y426380D01*
X8988Y426474D01*
X9171Y426562D01*
X9355Y426647D01*
X9541Y426727D01*
X9729Y426802D01*
X9919Y426872D01*
X10111Y426938D01*
X10304Y427000D01*
X10498Y427056D01*
X10694Y427108D01*
X10891Y427154D01*
X11090Y427196D01*
X11289Y427233D01*
X11489Y427266D01*
X11689Y427293D01*
X11891Y427315D01*
X12093Y427333D01*
X12295Y427345D01*
X12497Y427353D01*
X12700Y427355D01*
X12903Y427353D01*
X13105Y427345D01*
X13307Y427333D01*
X13509Y427315D01*
X13711Y427293D01*
X13911Y427266D01*
X14111Y427233D01*
X14310Y427196D01*
X14509Y427154D01*
X14706Y427108D01*
X14902Y427056D01*
X15096Y427000D01*
X15289Y426938D01*
X15481Y426872D01*
X15671Y426802D01*
X15859Y426727D01*
X16045Y426647D01*
X16229Y426562D01*
X16412Y426474D01*
X16591Y426380D01*
X16769Y426283D01*
X16944Y426181D01*
X17116Y426074D01*
X17286Y425964D01*
X17453Y425849D01*
X17617Y425730D01*
X17779Y425608D01*
X17937Y425481D01*
X18092Y425351D01*
X18244Y425217D01*
X18392Y425079D01*
X18537Y424937D01*
X18679Y424792D01*
X18817Y424644D01*
X18951Y424492D01*
X19081Y424337D01*
X19208Y424179D01*
X19330Y424017D01*
X19449Y423853D01*
X19564Y423686D01*
X19674Y423516D01*
X19781Y423344D01*
X19883Y423169D01*
X19980Y422991D01*
X20074Y422812D01*
X20162Y422629D01*
X20247Y422445D01*
X20327Y422259D01*
X20402Y422071D01*
X20472Y421881D01*
X20538Y421689D01*
X20600Y421496D01*
X20656Y421302D01*
X20708Y421106D01*
X20754Y420909D01*
X20796Y420710D01*
X20833Y420511D01*
X20866Y420311D01*
X20893Y420111D01*
X20915Y419909D01*
X20933Y419707D01*
X20945Y419505D01*
X20953Y419303D01*
X20955Y419100D01*
X20953Y418897D01*
X20945Y418695D01*
X20933Y418493D01*
X20915Y418291D01*
X20893Y418089D01*
X20866Y417889D01*
X20833Y417689D01*
X20796Y417490D01*
X20754Y417291D01*
X20708Y417094D01*
X20656Y416898D01*
X20600Y416704D01*
X20538Y416511D01*
X20472Y416319D01*
X20402Y416129D01*
X20327Y415941D01*
X20247Y415755D01*
X20162Y415571D01*
X20074Y415388D01*
X19980Y415209D01*
X19883Y415031D01*
X19781Y414856D01*
X19674Y414684D01*
X19564Y414514D01*
X19449Y414347D01*
X19330Y414183D01*
X19208Y414021D01*
X19081Y413863D01*
X18951Y413708D01*
X18817Y413556D01*
X18679Y413408D01*
X18537Y413263D01*
X18392Y413121D01*
X18244Y412983D01*
X18092Y412849D01*
X17937Y412719D01*
X17779Y412592D01*
X17617Y412470D01*
X17453Y412351D01*
X17286Y412236D01*
X17116Y412126D01*
X16944Y412019D01*
X16769Y411917D01*
X16591Y411820D01*
X16412Y411726D01*
X16229Y411638D01*
X16045Y411553D01*
X15859Y411473D01*
X15671Y411398D01*
X15481Y411328D01*
X15289Y411262D01*
X15096Y411200D01*
X14902Y411144D01*
X14706Y411092D01*
X14509Y411046D01*
X14310Y411004D01*
X14111Y410967D01*
X13911Y410934D01*
X13711Y410907D01*
X13509Y410885D01*
X13307Y410867D01*
X13105Y410855D01*
X12903Y410847D01*
X12700Y410845D01*
X12497Y410847D01*
X12295Y410855D01*
X12093Y410867D01*
X11891Y410885D01*
X11689Y410907D01*
X11489Y410934D01*
X11289Y410967D01*
X11090Y411004D01*
X10891Y411046D01*
X10694Y411092D01*
X10498Y411144D01*
X10304Y411200D01*
X10111Y411262D01*
X9919Y411328D01*
X9729Y411398D01*
X9541Y411473D01*
X9355Y411553D01*
X9171Y411638D01*
X8988Y411726D01*
X8809Y411820D01*
X8631Y411917D01*
X8456Y412019D01*
X8284Y412126D01*
X8114Y412236D01*
X7947Y412351D01*
X7783Y412470D01*
X7621Y412592D01*
X7463Y412719D01*
X7308Y412849D01*
X7156Y412983D01*
X7008Y413121D01*
X6863Y413263D01*
X6721Y413408D01*
X6583Y413556D01*
X6449Y413708D01*
X6319Y413863D01*
X6192Y414021D01*
X6070Y414183D01*
X5951Y414347D01*
X5836Y414514D01*
X5726Y414684D01*
X5619Y414856D01*
X5517Y415031D01*
X5420Y415209D01*
X5326Y415388D01*
X5238Y415571D01*
X5153Y415755D01*
X5073Y415941D01*
X4998Y416129D01*
X4928Y416319D01*
X4862Y416511D01*
X4800Y416704D01*
X4744Y416898D01*
X4692Y417094D01*
X4646Y417291D01*
X4604Y417490D01*
X4567Y417689D01*
X4534Y417889D01*
X4507Y418089D01*
X4485Y418291D01*
X4467Y418493D01*
X4455Y418695D01*
X4447Y418897D01*
X4445Y419100D01*
D11*
X125413Y347663D03*
X100013Y347663D03*
X74613Y347663D03*
X49213Y347663D03*
X72263Y302006D03*
X137287Y302006D03*
X72263Y256794D03*
X137287Y256794D03*
X72263Y232156D03*
X137287Y232156D03*
X72263Y186944D03*
X137287Y186944D03*
X65088Y28575D03*
X90488Y28575D03*
X115888Y28575D03*
D14*
X130175Y163513D03*
X53975Y9525D03*
X55563Y190500D03*
X88900Y111125D03*
X44450Y152400D03*
D15*
X33338Y163513D02*
X33338Y239713D01*
X33338Y163513D02*
X44450Y152400D01*
D14*
X47625Y244475D03*
D15*
X38100Y244475D01*
X33338Y239713D01*
X79375Y317500D02*
X165100Y317500D01*
X79375Y317500D02*
X49213Y347663D01*
X49213Y246063D01*
X47625Y244475D01*
M02*
